<svg width="116" height="110" viewBox="0 0 116 110" fill="none" xmlns="http://www.w3.org/2000/svg">
<path d="M61.1273 91.3528H59.5411V88.0622C59.5411 85.6828 57.6005 83.7422 55.2211 83.7422H22.5341C20.1547 83.7422 18.2141 85.6828 18.2141 88.0622V91.3528H16.6279C14.8391 91.3528 13.3711 92.8209 13.3711 94.6096V97.9508C13.3711 99.7396 14.8392 101.208 16.6279 101.208H61.127C62.9158 101.208 64.3838 99.7395 64.3838 97.9508V94.6096C64.3838 92.8208 62.9326 91.3528 61.127 91.3528H61.1273ZM20.7461 88.0622C20.7461 87.0834 21.5561 86.2734 22.5349 86.2734H55.2219C56.2006 86.2734 57.0107 87.0834 57.0107 88.0622V91.3528H20.7458L20.7461 88.0622ZM61.854 97.951C61.854 98.356 61.5334 98.6766 61.1284 98.6766H16.6293C16.2243 98.6766 15.9037 98.356 15.9037 97.951V94.6098C15.9037 94.2048 16.2243 93.8841 16.6293 93.8841H61.1284C61.5334 93.8841 61.854 94.2048 61.854 94.6098V97.951Z" fill="#C7B299"/>
<path d="M98.05 76.4192L93.2575 71.6268C93.2069 71.5424 93.1563 71.4749 93.0719 71.4074L74.087 52.4565L82.4402 44.1033C82.9802 44.559 83.6383 44.7952 84.347 44.7952C85.1402 44.7952 85.8827 44.4915 86.4395 43.9346L88.5151 41.859C89.6626 40.7115 89.6626 38.8214 88.5151 37.674L66.983 16.1419C66.4261 15.585 65.6836 15.2812 64.8905 15.2812C64.0975 15.2812 63.3549 15.585 62.7981 16.1419L60.7225 18.2175C60.1656 18.7744 59.8619 19.5169 59.8619 20.3099C59.8619 21.0187 60.115 21.6768 60.5538 22.2167L35.5116 47.2588C34.9716 46.8032 34.3135 46.567 33.6048 46.567C32.8117 46.567 32.0692 46.8707 31.5124 47.4276L29.4368 49.5032C28.2893 50.6507 28.2893 52.5408 29.4368 53.6882L50.9689 75.2203C51.5258 75.7772 52.2683 76.0809 53.0613 76.0809C53.8544 76.0809 54.597 75.7772 55.1538 75.2203L57.2294 73.1447C57.7862 72.5878 58.09 71.8453 58.09 71.0523C58.09 70.3435 57.8369 69.6854 57.3981 69.1454L65.7513 60.7923L89.7134 84.7374C92.0084 87.0324 95.7378 87.0324 98.0496 84.7374C100.345 82.4424 100.345 78.713 98.0496 76.418L98.05 76.4192ZM62.5118 20.0062L64.5874 17.9306C64.7561 17.7618 65.0261 17.7618 65.1949 17.9306L86.727 39.4627C86.8958 39.6315 86.8958 39.9015 86.727 40.0702L84.6514 42.1458C84.4826 42.3146 84.2126 42.3146 84.0439 42.1458C82.8458 40.9477 63.726 21.811 62.5118 20.6137C62.343 20.4449 62.343 20.1749 62.5118 20.0062V20.0062ZM55.4412 71.3571L53.3656 73.4327C53.1968 73.6015 52.9268 73.6015 52.7581 73.4327L31.2259 51.9006C31.0572 51.7318 31.0572 51.4618 31.2259 51.2931L33.3015 49.2175C33.4703 49.0487 33.7403 49.0487 33.909 49.2175L55.4412 70.7496C55.6099 70.9184 55.6099 71.1884 55.4412 71.3571ZM55.6268 67.3577L37.3177 49.0317L62.3259 24.0065L80.635 42.3156C79.825 43.1425 57.398 65.5695 55.6268 67.3577V67.3577ZM96.2626 82.9498C94.9463 84.2661 92.8201 84.2661 91.5038 82.9498L67.5586 59.0047L72.3174 54.2459L89.5295 71.4241C89.5802 71.5084 89.6308 71.5759 89.6983 71.6434L96.2627 78.2078C97.5621 79.5241 97.5621 81.6503 96.2627 82.9497L96.2626 82.9498Z" fill="#C7B299"/>
<path d="M9.0151 48.6414L13.343 44.2841L17.7002 48.6414L19.5844 46.7571L15.2272 42.3999L19.5844 38.0426L17.7002 36.1582L13.343 40.5157L9.0151 36.1582L7.13086 38.0426L11.4587 42.3999L7.13086 46.7571L9.0151 48.6414Z" fill="#FF2121"/>
<path d="M13.3716 30.1814C20.0253 30.1814 25.4425 35.5986 25.4425 42.2523C25.4425 48.906 20.0253 54.3232 13.3716 54.3232C6.71787 54.3232 1.30069 48.906 1.30069 42.2523C1.30069 35.5986 6.71787 30.1814 13.3716 30.1814V30.1814ZM13.3716 29.0039C6.04073 29.0039 0.123047 34.9216 0.123047 42.2524C0.123047 49.5833 6.04073 55.501 13.3716 55.501C20.7024 55.501 26.6201 49.5833 26.6201 42.2524C26.6201 34.9216 20.7024 29.0039 13.3716 29.0039V29.0039Z" fill="#FF2121"/>
</svg>
