<svg width="116" height="110" viewBox="0 0 116 110" fill="none" xmlns="http://www.w3.org/2000/svg">
<mask id="path-1-inside-1_102_23" fill="white">
<path d="M15.7369 56.1057C15.7159 56.7948 16.05 57.4639 16.6149 57.8609C17.179 58.2579 17.9101 58.362 18.5582 58.1119L22.9877 56.4616L27.4172 58.1128C27.6472 58.1967 27.8982 58.2378 28.1483 58.2378C28.5873 58.2378 29.0054 58.1128 29.3604 57.8408C29.9245 57.4438 30.2586 56.7747 30.2385 56.0856L30.1134 51.029L33.0387 47.0376C33.4357 46.4945 33.5398 45.7835 33.3317 45.1574C33.1226 44.5093 32.6215 44.0082 31.9735 43.8202L27.439 42.42L24.7436 38.3035C23.9705 37.1124 22.0062 37.1124 21.2332 38.3035L18.5378 42.42L14.0024 43.8403C13.3544 44.0493 12.8533 44.5294 12.6442 45.1775C12.4352 45.8255 12.5402 46.5147 12.9372 47.0577L15.8625 51.0491L15.7369 56.1057ZM20.5004 46.2016C20.9604 46.0555 21.3575 45.7626 21.6286 45.3445L22.9876 43.2762L24.3458 45.3445C24.6178 45.7626 25.0148 46.0547 25.474 46.2016L27.9394 46.9747L26.3302 49.1899C26.0582 49.5659 25.9122 50.0259 25.9332 50.4851L25.9961 53.1594L23.7398 52.3233C23.2589 52.1563 22.7577 52.1353 22.2767 52.3233L20.0204 53.1803L20.0834 50.5061C20.1044 50.0461 19.9583 49.5869 19.6864 49.2109L18.0772 46.9957L20.5004 46.2016Z"/>
</mask>
<path d="M15.7369 56.1057C15.7159 56.7948 16.05 57.4639 16.6149 57.8609C17.179 58.2579 17.9101 58.362 18.5582 58.1119L22.9877 56.4616L27.4172 58.1128C27.6472 58.1967 27.8982 58.2378 28.1483 58.2378C28.5873 58.2378 29.0054 58.1128 29.3604 57.8408C29.9245 57.4438 30.2586 56.7747 30.2385 56.0856L30.1134 51.029L33.0387 47.0376C33.4357 46.4945 33.5398 45.7835 33.3317 45.1574C33.1226 44.5093 32.6215 44.0082 31.9735 43.8202L27.439 42.42L24.7436 38.3035C23.9705 37.1124 22.0062 37.1124 21.2332 38.3035L18.5378 42.42L14.0024 43.8403C13.3544 44.0493 12.8533 44.5294 12.6442 45.1775C12.4352 45.8255 12.5402 46.5147 12.9372 47.0577L15.8625 51.0491L15.7369 56.1057ZM20.5004 46.2016C20.9604 46.0555 21.3575 45.7626 21.6286 45.3445L22.9876 43.2762L24.3458 45.3445C24.6178 45.7626 25.0148 46.0547 25.474 46.2016L27.9394 46.9747L26.3302 49.1899C26.0582 49.5659 25.9122 50.0259 25.9332 50.4851L25.9961 53.1594L23.7398 52.3233C23.2589 52.1563 22.7577 52.1353 22.2767 52.3233L20.0204 53.1803L20.0834 50.5061C20.1044 50.0461 19.9583 49.5869 19.6864 49.2109L18.0772 46.9957L20.5004 46.2016Z" fill="#C7B299" stroke="white" stroke-width="2" mask="url(#path-1-inside-1_102_23)"/>
<mask id="path-2-inside-2_102_23" fill="white">
<path d="M43.0221 51.0701L42.897 56.1267C42.876 56.8158 43.2101 57.4848 43.7751 57.8819C44.3391 58.2789 45.0703 58.383 45.7183 58.1329L50.1478 56.4616L54.5773 58.1128C54.8073 58.1967 55.0583 58.2378 55.3084 58.2378C55.7475 58.2378 56.1655 58.1128 56.5206 57.8408C57.0846 57.4438 57.4187 56.7747 57.3986 56.0856L57.2735 51.029L60.1988 47.0376C60.5958 46.4945 60.6999 45.7835 60.4918 45.1573C60.2828 44.5093 59.7816 44.0082 59.1336 43.8202L54.5991 42.42L51.9038 38.3035C51.1307 37.1124 49.1664 37.1124 48.3933 38.3035L45.698 42.42L41.1626 43.8403C40.5145 44.0493 40.0134 44.5294 39.8044 45.1775C39.5954 45.8255 39.7003 46.5147 40.0974 47.0577L43.0221 51.0701ZM47.6616 46.2015C48.1216 46.0555 48.5186 45.7625 48.7898 45.3445L50.1479 43.2762L51.5061 45.3445C51.7781 45.7625 52.1751 46.0546 52.6343 46.2015L55.0996 46.9746L53.4905 49.1898C53.2185 49.5659 53.0725 50.0259 53.0935 50.485L53.1564 53.1593L50.9001 52.3232C50.4191 52.1562 49.918 52.1352 49.437 52.3232L47.1807 53.1803L47.2437 50.506C47.2647 50.046 47.1186 49.5868 46.8467 49.2108L45.2375 46.9956L47.6616 46.2015Z"/>
</mask>
<path d="M43.0221 51.0701L42.897 56.1267C42.876 56.8158 43.2101 57.4848 43.7751 57.8819C44.3391 58.2789 45.0703 58.383 45.7183 58.1329L50.1478 56.4616L54.5773 58.1128C54.8073 58.1967 55.0583 58.2378 55.3084 58.2378C55.7475 58.2378 56.1655 58.1128 56.5206 57.8408C57.0846 57.4438 57.4187 56.7747 57.3986 56.0856L57.2735 51.029L60.1988 47.0376C60.5958 46.4945 60.6999 45.7835 60.4918 45.1573C60.2828 44.5093 59.7816 44.0082 59.1336 43.8202L54.5991 42.42L51.9038 38.3035C51.1307 37.1124 49.1664 37.1124 48.3933 38.3035L45.698 42.42L41.1626 43.8403C40.5145 44.0493 40.0134 44.5294 39.8044 45.1775C39.5954 45.8255 39.7003 46.5147 40.0974 47.0577L43.0221 51.0701ZM47.6616 46.2015C48.1216 46.0555 48.5186 45.7625 48.7898 45.3445L50.1479 43.2762L51.5061 45.3445C51.7781 45.7625 52.1751 46.0546 52.6343 46.2015L55.0996 46.9746L53.4905 49.1898C53.2185 49.5659 53.0725 50.0259 53.0935 50.485L53.1564 53.1593L50.9001 52.3232C50.4191 52.1562 49.918 52.1352 49.437 52.3232L47.1807 53.1803L47.2437 50.506C47.2647 50.046 47.1186 49.5868 46.8467 49.2108L45.2375 46.9956L47.6616 46.2015Z" fill="#C7B299" stroke="white" stroke-width="2" mask="url(#path-2-inside-2_102_23)"/>
<mask id="path-3-inside-3_102_23" fill="white">
<path d="M86.2968 43.8377L81.7623 42.4376L79.067 38.3211C78.2939 37.13 76.3295 37.13 75.5565 38.3211L72.8612 42.4376L68.3266 43.8377C67.6786 44.0468 67.1775 44.5269 66.9685 45.1749C66.7594 45.823 66.8644 46.5121 67.2614 47.0552L70.1867 51.0466L70.0616 56.1032C70.0406 56.7923 70.3747 57.4613 70.9397 57.8584C71.5038 58.2554 72.2349 58.3595 72.8829 58.1094L77.3115 56.4591L81.7411 58.1102C81.9711 58.1942 82.2221 58.2353 82.4722 58.2353C82.9112 58.2353 83.3292 58.1102 83.6843 57.8383C84.2484 57.4412 84.5825 56.7722 84.5624 56.0831L84.4373 51.0265L87.3625 47.0351C87.7596 46.492 87.8637 45.781 87.6555 45.1548C87.4465 44.5479 86.9235 44.0468 86.2965 43.8378L86.2968 43.8377ZM80.6341 49.1664C80.3622 49.5424 80.2161 50.0024 80.2371 50.4616L80.3001 53.1359L78.0438 52.2998C77.5628 52.1328 77.0617 52.1118 76.5807 52.2998L74.3244 53.1568L74.3873 50.4826C74.4083 50.0225 74.2623 49.5634 73.9903 49.1874L72.3811 46.9721L74.8465 46.1991C75.3066 46.053 75.7036 45.76 75.9747 45.342L77.3119 43.2737L78.6701 45.342C78.942 45.76 79.3391 46.0521 79.7982 46.1991L82.2636 46.9721L80.6341 49.1664Z"/>
</mask>
<path d="M86.2968 43.8377L81.7623 42.4376L79.067 38.3211C78.2939 37.13 76.3295 37.13 75.5565 38.3211L72.8612 42.4376L68.3266 43.8377C67.6786 44.0468 67.1775 44.5269 66.9685 45.1749C66.7594 45.823 66.8644 46.5121 67.2614 47.0552L70.1867 51.0466L70.0616 56.1032C70.0406 56.7923 70.3747 57.4613 70.9397 57.8584C71.5038 58.2554 72.2349 58.3595 72.8829 58.1094L77.3115 56.4591L81.7411 58.1102C81.9711 58.1942 82.2221 58.2353 82.4722 58.2353C82.9112 58.2353 83.3292 58.1102 83.6843 57.8383C84.2484 57.4412 84.5825 56.7722 84.5624 56.0831L84.4373 51.0265L87.3625 47.0351C87.7596 46.492 87.8637 45.781 87.6555 45.1548C87.4465 44.5479 86.9235 44.0468 86.2965 43.8378L86.2968 43.8377ZM80.6341 49.1664C80.3622 49.5424 80.2161 50.0024 80.2371 50.4616L80.3001 53.1359L78.0438 52.2998C77.5628 52.1328 77.0617 52.1118 76.5807 52.2998L74.3244 53.1568L74.3873 50.4826C74.4083 50.0225 74.2623 49.5634 73.9903 49.1874L72.3811 46.9721L74.8465 46.1991C75.3066 46.053 75.7036 45.76 75.9747 45.342L77.3119 43.2737L78.6701 45.342C78.942 45.76 79.3391 46.0521 79.7982 46.1991L82.2636 46.9721L80.6341 49.1664Z" fill="#C7B299" stroke="white" stroke-width="2" mask="url(#path-3-inside-3_102_23)"/>
<mask id="path-4-inside-4_102_23" fill="white">
<path d="M94.0307 29.004H6.26871C2.82137 29.004 0 31.8254 0 35.2727V81.2425C0 84.6899 2.82137 87.5112 6.26871 87.5112H66.5536L64.7984 99.7556C64.6733 100.613 65.1115 101.469 65.8644 101.887C66.1775 102.054 66.5125 102.138 66.8675 102.138C67.3687 102.138 67.8497 101.971 68.2467 101.616L84.3786 87.5112H94.0317C97.479 87.5112 100.3 84.6898 100.3 81.2424V35.2726C100.3 31.8244 97.479 29.0039 94.0317 29.0039L94.0307 29.004ZM96.1199 81.2425C96.1199 82.3917 95.1798 83.3318 94.0307 83.3318H83.5825C83.4785 83.3318 83.3945 83.3738 83.2896 83.3948C83.1435 83.4158 82.9966 83.4367 82.8295 83.4787C82.6835 83.5417 82.5785 83.6248 82.4535 83.7087C82.3695 83.7717 82.2655 83.7927 82.2025 83.8548L69.728 94.7621L71.0232 85.7141C71.0232 85.6511 71.0022 85.61 71.0232 85.5681C71.0232 85.5261 71.0442 85.4841 71.0442 85.422C71.0442 85.3381 71.0022 85.255 71.0022 85.171C70.9812 85.025 70.9602 84.899 70.9182 84.753C70.8763 84.6279 70.8142 84.523 70.7512 84.3979C70.6882 84.2729 70.6261 84.1679 70.5212 84.0639C70.4373 83.9598 70.3332 83.8758 70.2282 83.7919C70.1242 83.7079 70.0192 83.6248 69.8942 83.5619C69.7691 83.4989 69.6432 83.4578 69.4971 83.4158C69.4132 83.3948 69.3301 83.3319 69.2461 83.3319C69.2042 83.3319 69.1421 83.3529 69.1001 83.3319C69.0581 83.3319 68.996 83.3109 68.954 83.3109H6.26916C5.12001 83.3109 4.17988 82.3708 4.17988 81.2216V35.2518C4.17988 34.1027 5.12001 33.1625 6.26916 33.1625H94.0311C95.1803 33.1625 96.1204 34.1027 96.1204 35.2518L96.1199 81.2425Z"/>
</mask>
<path d="M94.0307 29.004H6.26871C2.82137 29.004 0 31.8254 0 35.2727V81.2425C0 84.6899 2.82137 87.5112 6.26871 87.5112H66.5536L64.7984 99.7556C64.6733 100.613 65.1115 101.469 65.8644 101.887C66.1775 102.054 66.5125 102.138 66.8675 102.138C67.3687 102.138 67.8497 101.971 68.2467 101.616L84.3786 87.5112H94.0317C97.479 87.5112 100.3 84.6898 100.3 81.2424V35.2726C100.3 31.8244 97.479 29.0039 94.0317 29.0039L94.0307 29.004ZM96.1199 81.2425C96.1199 82.3917 95.1798 83.3318 94.0307 83.3318H83.5825C83.4785 83.3318 83.3945 83.3738 83.2896 83.3948C83.1435 83.4158 82.9966 83.4367 82.8295 83.4787C82.6835 83.5417 82.5785 83.6248 82.4535 83.7087C82.3695 83.7717 82.2655 83.7927 82.2025 83.8548L69.728 94.7621L71.0232 85.7141C71.0232 85.6511 71.0022 85.61 71.0232 85.5681C71.0232 85.5261 71.0442 85.4841 71.0442 85.422C71.0442 85.3381 71.0022 85.255 71.0022 85.171C70.9812 85.025 70.9602 84.899 70.9182 84.753C70.8763 84.6279 70.8142 84.523 70.7512 84.3979C70.6882 84.2729 70.6261 84.1679 70.5212 84.0639C70.4373 83.9598 70.3332 83.8758 70.2282 83.7919C70.1242 83.7079 70.0192 83.6248 69.8942 83.5619C69.7691 83.4989 69.6432 83.4578 69.4971 83.4158C69.4132 83.3948 69.3301 83.3319 69.2461 83.3319C69.2042 83.3319 69.1421 83.3529 69.1001 83.3319C69.0581 83.3319 68.996 83.3109 68.954 83.3109H6.26916C5.12001 83.3109 4.17988 82.3708 4.17988 81.2216V35.2518C4.17988 34.1027 5.12001 33.1625 6.26916 33.1625H94.0311C95.1803 33.1625 96.1204 34.1027 96.1204 35.2518L96.1199 81.2425Z" fill="#C7B299" stroke="white" stroke-width="2" mask="url(#path-4-inside-4_102_23)"/>
<mask id="path-5-inside-5_102_23" fill="white">
<path d="M83.583 64.5254H16.7182C15.569 64.5254 14.6289 65.4655 14.6289 66.6147C14.6289 67.7638 15.569 68.7039 16.7182 68.7039H83.5852C84.7344 68.7039 85.6745 67.7638 85.6745 66.6147C85.6745 65.4664 84.7335 64.5254 83.5843 64.5254H83.583Z"/>
</mask>
<path d="M83.583 64.5254H16.7182C15.569 64.5254 14.6289 65.4655 14.6289 66.6147C14.6289 67.7638 15.569 68.7039 16.7182 68.7039H83.5852C84.7344 68.7039 85.6745 67.7638 85.6745 66.6147C85.6745 65.4664 84.7335 64.5254 83.5843 64.5254H83.583Z" fill="#C7B299" stroke="white" stroke-width="2" mask="url(#path-5-inside-5_102_23)"/>
<mask id="path-6-inside-6_102_23" fill="white">
<path d="M83.583 72.8848H16.7182C15.569 72.8848 14.6289 73.8249 14.6289 74.974C14.6289 76.1232 15.569 77.0633 16.7182 77.0633H83.5852C84.7344 77.0633 85.6745 76.1232 85.6745 74.974C85.6745 73.8249 84.7335 72.8848 83.5843 72.8848H83.583Z"/>
</mask>
<path d="M83.583 72.8848H16.7182C15.569 72.8848 14.6289 73.8249 14.6289 74.974C14.6289 76.1232 15.569 77.0633 16.7182 77.0633H83.5852C84.7344 77.0633 85.6745 76.1232 85.6745 74.974C85.6745 73.8249 84.7335 72.8848 83.5843 72.8848H83.583Z" fill="#C7B299" stroke="white" stroke-width="2" mask="url(#path-6-inside-6_102_23)"/>
</svg>
