<svg width="116" height="110" viewBox="0 0 116 110" fill="none" xmlns="http://www.w3.org/2000/svg">
<g clip-path="url(#clip0_102_25)">
<path d="M19.3243 43.8041C19.3243 44.1533 19.6073 44.4362 19.9564 44.4362C20.3056 44.4362 20.5886 44.1533 20.5886 43.8041C20.5886 42.0693 19.1775 40.6582 17.4428 40.6582C15.708 40.6582 14.2969 42.0693 14.2969 43.8041C14.2969 44.1533 14.5799 44.4362 14.9291 44.4362C15.2782 44.4362 15.5612 44.1533 15.5612 43.8041C15.5612 42.7655 16.4057 41.9226 17.4428 41.9226C18.4791 41.9226 19.3243 42.7655 19.3243 43.8041V43.8041Z" fill="#C7B299" stroke="#C7B299"/>
<path d="M26.8626 44.4343C27.2119 44.4343 27.4948 44.1513 27.4948 43.8021C27.4948 42.7635 28.3392 41.9206 29.3763 41.9206C30.4134 41.9206 31.2579 42.7635 31.2579 43.8021C31.2579 44.1513 31.5408 44.4343 31.89 44.4343C32.2392 44.4343 32.5222 44.1513 32.5222 43.8021C32.5222 42.0674 31.1111 40.6562 29.3763 40.6562C27.6416 40.6562 26.2305 42.0674 26.2305 43.8021C26.2305 44.1513 26.5135 44.4343 26.8626 44.4343Z" fill="#C7B299" stroke="#C7B299"/>
<path d="M28.5084 50.9251C28.5084 50.5759 28.2255 50.293 27.8763 50.293C27.5271 50.293 27.2441 50.576 27.2441 50.9251C27.2441 51.8155 25.6087 52.8067 23.2636 52.8067C20.9153 52.8067 19.28 51.8155 19.28 50.9251C19.28 50.5759 18.997 50.293 18.6478 50.293C18.2986 50.293 18.0156 50.576 18.0156 50.9251C18.0156 52.6885 20.3201 54.071 23.2635 54.071C26.2055 54.071 28.5085 52.69 28.5085 50.9251H28.5084Z" fill="#C7B299" stroke="#C7B299"/>
<path d="M44.959 79.1696C44.959 79.1666 44.9605 79.1643 44.9605 79.1628C44.9605 79.0732 44.9402 78.9874 44.9086 78.9114C43.0963 70.8028 37.1657 64.1822 29.207 61.8845L29.128 59.7147C33.7015 57.6886 37.0936 53.432 37.9801 48.3067C40.0572 48.2427 41.7311 46.602 41.7311 44.5843C41.7311 43.7888 41.4662 43.0535 41.0229 42.4469C41.1967 42.4416 41.3683 42.4386 41.5437 42.4198C41.8643 42.3859 42.1104 42.115 42.1104 41.7906V37.9486C42.1104 29.3946 36.5893 22.1318 28.9759 19.6137C30.2606 18.204 31.0139 16.394 31.0139 14.4567C31.0139 10.2098 27.5579 6.75391 23.3111 6.75391C19.0642 6.75391 15.6104 10.21 15.6104 14.4567C15.6104 16.3382 16.3269 18.1099 17.5477 19.5044C9.7672 21.9218 4.09334 29.274 4.09334 37.9492V46.5605C4.09334 53.5379 5.54512 58.1806 8.96338 62.1041C9.11692 62.2659 9.91393 63.0719 10.735 63.0719C11.079 63.0719 11.3838 62.9387 11.6148 62.6843C12.0431 62.2155 12.1845 61.3612 12.0581 59.9953C11.9317 58.6263 11.6773 57.5343 11.4109 56.3776C11.3032 55.9109 11.1971 55.4338 11.094 54.9416C12.7309 57.1249 14.879 58.804 17.3399 59.829L17.3211 61.8587C9.30363 64.1278 3.33172 70.7613 1.51641 78.9142C1.48254 78.9902 1.46598 79.0745 1.46598 79.1618V79.1648C1.12731 80.7732 0.931641 82.4334 0.931641 84.1366V94.0913C0.931641 101.713 4.87149 104.474 8.7256 106.171C9.71377 106.604 10.7893 106.71 11.8008 106.71C12.3283 106.71 12.8379 106.682 13.3112 106.655C13.5927 106.638 13.8494 106.631 14.109 106.622V107.373C14.109 108.65 15.1491 109.69 16.427 109.69H26.8693C27.2118 109.709 27.5437 109.712 27.8793 109.719C27.9282 109.721 27.9734 109.733 28.0223 109.733C28.0374 109.733 28.0509 109.724 28.0645 109.724C28.1706 109.724 28.2835 109.733 28.3881 109.733C33.405 109.733 37.3433 108.406 40.1076 105.781C43.7864 102.289 45.4992 96.6297 45.4992 87.9747V84.1341C45.4947 82.4377 45.2998 80.7775 44.9589 79.1691L44.959 79.1696ZM37.2125 79.4488C39.3973 83.7476 37.0386 87.4445 36.9378 87.5996C36.87 87.7042 36.8331 87.8239 36.8331 87.9465L36.8497 94.7034C36.0775 98.1007 33.9553 99.6428 32.8609 100.241V86.2433C32.8609 84.9654 31.8208 83.9254 30.5429 83.9254H16.421C15.1431 83.9254 14.103 84.9655 14.103 86.2433V96.8439C13.3279 97.6161 12.5993 97.9721 11.9454 97.8622C10.9896 97.7019 10.2475 96.588 9.9765 96.0484V88.4064C9.9765 88.3191 9.95768 88.2364 9.92758 88.1603C9.99531 87.9767 9.98628 87.769 9.87188 87.5936C7.90302 84.6404 9.32247 79.3804 9.33754 79.3278C9.38947 79.1389 9.35109 78.935 9.23142 78.7784C9.11176 78.6196 8.92435 78.5286 8.72718 78.5286H2.89746C3.486 76.2135 4.42826 74.0392 5.6761 72.0802C5.69115 72.0802 5.7047 72.0885 5.71975 72.0885H40.7023C40.7159 72.0885 40.7279 72.0817 40.7392 72.0802C41.987 74.0408 42.9323 76.2158 43.5223 78.5286H37.7739C37.5533 78.5286 37.3509 78.6414 37.2357 78.8303C37.1213 79.0215 37.1131 79.2541 37.2124 79.449L37.2125 79.4488ZM38.1517 47.0268C38.1923 46.5714 38.2209 46.1146 38.2209 45.651V42.1514C39.4853 42.3215 40.4646 43.3413 40.4646 44.5838C40.4646 45.852 39.4485 46.8852 38.1518 47.0269L38.1517 47.0268ZM16.8716 14.4583C16.8716 10.9082 19.7593 8.01978 23.3079 8.01978C26.8579 8.01978 29.7464 10.9075 29.7464 14.4583C29.7464 16.2962 28.9539 18.0084 27.5955 19.2292C26.1505 18.8717 24.6506 18.6609 23.0979 18.6609C21.6649 18.6609 20.2726 18.8363 18.9307 19.1434C17.6302 17.9279 16.8714 16.2474 16.8714 14.4585L16.8716 14.4583ZM10.6965 61.8063C10.5196 61.7724 10.1418 61.5143 9.8972 61.2584C6.66849 57.5526 5.35373 53.2958 5.35373 46.5631V37.9518C5.35373 28.0121 13.314 19.9268 23.0972 19.9268C32.8833 19.9268 40.8422 28.0121 40.8422 37.9518V41.1956H40.8219H40.8204C36.2958 41.1956 32.1504 35.9138 32.1015 35.8514C27.7792 30.4634 20.4963 30.2979 19.5812 30.2979H19.5759C19.3704 30.3009 19.18 30.4055 19.0649 30.5779C18.9505 30.748 18.9249 30.964 18.9972 31.1559C19.8009 33.2563 15.1099 39.4737 12.7648 40.6085C10.1042 41.8962 9.53451 45.7051 9.50754 45.897C8.98974 51.5634 9.61741 54.2721 10.1721 56.6631C10.4302 57.7777 10.6748 58.8313 10.7945 60.1137C10.9074 61.3172 10.7523 61.7085 10.6967 61.8064L10.6965 61.8063ZM10.707 51.9704L10.6701 51.9892C10.5452 50.4464 10.5369 48.5725 10.768 46.0451C10.7732 46.0112 11.2707 42.7389 13.32 41.7463C15.4611 40.7114 20.4238 34.9555 20.3464 31.5862C22.3272 31.7058 27.7369 32.4261 31.114 36.6354C31.2487 36.8108 33.663 39.8791 36.9776 41.4889H36.961V45.6545C36.961 53.4177 30.7437 59.7343 23.1017 59.7343C17.8259 59.732 13.0786 56.7585 10.7071 51.9704L10.707 51.9704ZM18.1058 62.9555C18.3843 62.8833 18.5777 62.6349 18.5792 62.3489L18.598 60.2905C20.0325 60.7405 21.54 60.9972 23.0977 60.9972C24.77 60.9972 26.3731 60.7089 27.879 60.1979L27.9602 62.3947C27.97 62.6732 28.1612 62.9125 28.4306 62.9832C33.1171 64.2273 37.0893 67.0549 39.8793 70.8277H24.0392V69.4572C24.0392 69.108 23.7562 68.825 23.407 68.825C23.0578 68.825 22.7748 69.108 22.7748 69.4572V70.8277H6.54337C9.35439 67.0233 13.3665 64.183 18.1057 62.9555L18.1058 62.9555ZM13.2357 105.394C11.9322 105.472 10.4571 105.553 9.23194 105.013C5.57512 103.407 2.19362 100.973 2.19362 94.0923V84.1376C2.19362 82.6542 2.35392 81.2039 2.62712 79.7951H7.93067C7.58371 81.4892 7.03733 85.4749 8.75703 88.1852C8.72994 88.2559 8.71338 88.3304 8.71338 88.4094V96.1928C8.71338 96.2801 8.7322 96.3682 8.76757 96.4472C8.80821 96.5435 9.8197 98.7871 11.7329 99.1106C11.8879 99.1377 12.0445 99.1498 12.1995 99.1498C12.8317 99.1498 13.4692 98.9089 14.1044 98.4784V105.36C13.8221 105.369 13.5422 105.375 13.2359 105.394L13.2357 105.394ZM15.3678 107.377V86.2449C15.3678 85.6632 15.8397 85.1913 16.4215 85.1913H30.5434C31.1251 85.1913 31.597 85.6632 31.597 86.2449V100.614L28.0161 100.876C25.4656 100.876 23.3898 102.864 23.3898 105.307C23.3898 106.524 23.9076 107.628 24.74 108.429H16.4206C15.8419 108.43 15.3677 107.957 15.3677 107.377L15.3678 107.377ZM44.2313 87.9789C44.2313 96.2628 42.6433 101.631 39.2346 104.867C36.7413 107.233 33.2987 108.414 28.7568 108.469C28.6959 108.448 28.6356 108.432 28.5694 108.432H27.5835C25.9345 108.229 24.6552 106.914 24.6552 105.31C24.6552 103.565 26.1641 102.144 28.0623 102.142L32.179 101.825C32.1978 101.827 32.2114 101.835 32.2279 101.835C32.2648 101.835 32.3002 101.82 32.3355 101.813L32.4146 101.807C32.5952 101.749 36.8586 100.364 38.0959 94.8441V88.1279C38.5663 87.3257 40.3432 83.8794 38.7499 79.7966H43.794C44.0687 81.2078 44.229 82.6558 44.229 84.1392L44.2297 87.979L44.2313 87.9789Z" fill="#C7B299" stroke="#C7B299"/>
<path d="M17.8711 88.0516C17.7191 88.2036 17.6348 88.4226 17.6348 88.6431C17.6348 88.8621 17.7191 89.0811 17.8861 89.2482C18.0397 89.4002 18.2587 89.486 18.4777 89.486C18.6801 89.486 18.8991 89.4002 19.0677 89.2331C19.2197 89.0811 19.3206 88.8621 19.3206 88.6431C19.3206 88.4226 19.2175 88.2028 19.0677 88.0365C18.7479 87.7317 18.2248 87.7129 17.8711 88.0516V88.0516Z" fill="#C7B299" stroke="#C7B299"/>
</g>
<defs>
<clipPath id="clip0_102_25">
<rect width="116" height="110" fill="white"/>
</clipPath>
</defs>
</svg>
