<svg width="73" height="113" viewBox="0 0 73 113" fill="none" xmlns="http://www.w3.org/2000/svg">
<path d="M56.6937 99.0821C57.0583 99.0821 57.4093 98.9384 57.6614 98.6822C57.9134 98.4249 58.0644 98.076 58.0644 97.7114C58.0644 97.3531 57.9155 96.999 57.6614 96.747C57.4072 96.4897 57.0583 96.3418 56.6937 96.3418C56.3354 96.3418 55.9771 96.4928 55.7261 96.747C55.472 97.0011 55.3262 97.3531 55.3262 97.7114C55.3262 98.0698 55.472 98.427 55.7261 98.6822C55.9751 98.9395 56.3323 99.0821 56.6937 99.0821Z" fill="#C7B299"/>
<path d="M15.9391 96.3438C15.5797 96.3438 15.2225 96.4896 14.9683 96.7437C14.7163 97.001 14.5684 97.353 14.5684 97.7113C14.5684 98.0759 14.7163 98.4269 14.9683 98.6821C15.2225 98.9393 15.5755 99.082 15.9391 99.082C16.2963 99.082 16.6515 98.9383 16.9056 98.6821C17.1598 98.4248 17.3087 98.0759 17.3087 97.7113C17.3087 97.353 17.1598 96.9989 16.9056 96.7437C16.6515 96.4906 16.2994 96.3438 15.9391 96.3438Z" fill="#C7B299"/>
<path d="M29.5191 43.9238C29.1608 43.9238 28.8036 44.0728 28.5515 44.329C28.2974 44.5831 28.1484 44.9341 28.1484 45.2956C28.1484 45.657 28.2974 46.0111 28.5515 46.2632C28.8036 46.5204 29.1608 46.6683 29.5191 46.6683C29.8837 46.6683 30.2347 46.5194 30.4899 46.2632C30.7419 46.0111 30.8898 45.657 30.8898 45.2956C30.8898 44.9341 30.7419 44.58 30.4899 44.329C30.2378 44.0696 29.8837 43.9238 29.5191 43.9238Z" fill="#C7B299"/>
<path d="M43.1187 46.6652C43.476 46.6652 43.8322 46.5194 44.0853 46.2621C44.3395 46.0101 44.4873 45.6559 44.4873 45.2945C44.4873 44.9331 44.3395 44.579 44.0853 44.3259C43.827 44.0738 43.476 43.9238 43.1187 43.9238C42.7573 43.9238 42.4032 44.0728 42.148 44.329C41.8939 44.5831 41.748 44.9341 41.748 45.2956C41.748 45.657 41.8939 46.0111 42.148 46.2632C42.4021 46.5184 42.7573 46.6652 43.1187 46.6652Z" fill="#C7B299"/>
<path d="M71.26 0.246094H1.3707C0.61557 0.246094 0 0.858543 0 1.61367V106.449C0 107.207 0.61557 107.82 1.3707 107.82H4.85569V110.818C4.85569 111.579 5.46918 112.189 6.22743 112.189C6.98464 112.189 7.59708 111.579 7.59708 110.818V107.82H65.0316V110.818C65.0316 111.579 65.6471 112.189 66.4054 112.189C67.1605 112.189 67.7761 111.579 67.7761 110.818V107.82H71.2611C72.0162 107.82 72.6318 107.207 72.6318 106.449L72.6328 88.9767V1.61447C72.6297 0.859343 72.0162 0.246895 71.259 0.246895L71.26 0.246094ZM69.8893 87.6057H37.687V2.9845H69.8893V87.6057ZM2.74374 2.9845H34.946V87.6057H2.74374V2.9845ZM69.8893 105.081H2.74374V90.3484L36.3165 90.3473H69.8893V105.081Z" fill="#C7B299"/>
</svg>
