<svg width="66" height="48" viewBox="0 0 66 48" fill="none" xmlns="http://www.w3.org/2000/svg">
<path d="M13.0842 27.7957C11.9863 28.4537 10.745 28.8358 9.46716 28.9099L9.36903 28.9086C9.35275 28.9081 9.33647 28.9081 9.32019 28.9081C8.6903 28.9081 8.09661 29.2011 7.71356 29.7004C7.33011 30.2 7.20078 30.8494 7.36358 31.4576C7.52637 32.0658 7.96273 32.5636 8.54421 32.8051C10.8319 33.7543 12.5533 34.4507 13.8578 34.9621V34.9616C13.4413 35.2452 12.9919 35.4753 12.5185 35.6476C12.1703 35.7213 11.8153 35.7589 11.459 35.7589C8.59488 35.7589 6.33212 33.317 6.163 33.1294C6.14446 33.1086 6.12592 33.0882 6.10648 33.0679V33.0683C5.9663 32.9223 5.80532 32.7979 5.62852 32.6998C5.3251 32.5307 4.98325 32.442 4.63552 32.4416C3.93553 32.4389 3.28391 32.7993 2.91405 33.3939C2.54417 33.9881 2.5089 34.7315 2.82045 35.3587C3.78 37.6684 7.62992 45.036 17.5659 45.036C21.3001 45.036 25.4815 43.9543 30.0251 41.8241C29.5675 41.3027 29.1361 40.7597 28.7305 40.1944C24.2756 42.2283 20.5943 43.0102 17.566 43.0102C14.7987 43.0744 12.0774 42.2908 9.76812 40.7642C7.45836 39.238 5.6708 37.0423 4.64436 34.4712C4.8171 34.6647 7.60341 37.7848 11.4588 37.7848C11.9566 37.7848 12.4536 37.7328 12.9406 37.6292C14.4505 37.31 18.0611 34.4897 18.2177 34.3464C18.2122 34.3468 18.2068 34.3473 18.2014 34.3473C17.5471 34.3473 9.3204 30.9342 9.3204 30.9342C9.36924 30.9356 9.41808 30.9361 9.46691 30.9361C14.2778 30.9361 19.4815 25.3628 19.4815 25.3628V25.3623C18.1322 25.7345 16.7399 25.928 15.3404 25.9384C5.82603 25.9384 2.55941 15.9812 2.46217 15.6711C2.60778 15.9013 5.28382 20.0673 9.75272 20.0673C11.391 20.0673 13.2708 19.5071 15.354 17.9877C17.2324 16.5231 19.5358 15.7074 21.9174 15.6635C23.9025 15.6938 25.8419 16.2631 27.5287 17.3104C27.8637 16.723 28.2255 16.1537 28.6139 15.6025C26.6031 14.3486 24.2869 13.6694 21.9174 13.6377C19.1071 13.6829 16.3863 14.6348 14.1606 16.3509C12.6223 17.4727 11.1391 18.0415 9.75272 18.0415C6.44639 18.0415 4.32834 14.8287 4.17993 14.5972C3.80869 14.0035 3.15799 13.6422 2.45754 13.6413C1.79283 13.6395 1.16972 13.9646 0.791182 14.5109C0.412705 15.0576 0.32724 15.7548 0.562371 16.3766C0.934515 17.46 4.283 26.4495 13.0829 27.796L13.0842 27.7957Z" fill="#C7B299"/>
<path d="M59.6212 14.2074C59.5918 14.1807 59.5611 14.1559 59.529 14.1324C56.6779 11.3084 53.0139 9.44813 49.0513 8.81331V6.54511H50.5707C51.1079 6.54466 51.6229 6.33077 52.0023 5.95094C52.3821 5.57156 52.596 5.05651 52.5965 4.51934V2.49354C52.596 1.95635 52.3821 1.44131 52.0023 1.06194C51.6229 0.682114 51.1079 0.468225 50.5707 0.467773H41.4546C40.9174 0.468226 40.4024 0.682114 40.023 1.06194C39.6432 1.44132 39.4293 1.95637 39.4288 2.49354V4.51934C39.4293 5.05653 39.6432 5.57157 40.023 5.95094C40.4024 6.33077 40.9174 6.54466 41.4546 6.54511H42.974V8.81331C39.0115 9.44818 35.3474 11.3085 32.4963 14.1324C32.4298 14.1767 32.3729 14.2336 32.3286 14.3001C28.7663 17.8963 26.7676 22.7537 26.7676 27.8162C26.7676 32.8787 28.7663 37.7358 32.3286 41.3323C32.3729 41.3988 32.4298 41.4558 32.4963 41.5001C36.0925 45.0628 40.9504 47.0615 46.0124 47.0615C51.0745 47.0615 55.9324 45.0628 59.5285 41.5001C59.595 41.4558 59.652 41.3988 59.6963 41.3323C63.2586 37.7361 65.2573 32.8787 65.2573 27.8162C65.2573 22.7537 63.2586 17.8966 59.6963 14.3001C59.6728 14.268 59.6474 14.2368 59.6208 14.2074L59.6212 14.2074ZM41.4551 4.51937V2.49357H50.5711L50.5725 4.51937H41.4551ZM47.026 6.54516V8.57096H45.0002V6.54516H47.026ZM61.731 28.8289H63.2005C62.9753 32.6897 61.4515 36.3609 58.8767 39.2464L57.8439 38.2136H57.8434C57.4482 37.8179 56.8066 37.8179 56.4109 38.2131C56.0152 38.6088 56.0152 39.25 56.4109 39.6456L57.4441 40.6789C54.5583 43.2541 50.8869 44.7779 47.0262 45.0031V43.5331C47.0262 42.9737 46.5727 42.5202 46.0133 42.5202C45.454 42.5202 45.0004 42.9737 45.0004 43.5331V45.0031C41.1396 44.7779 37.4684 43.2541 34.5825 40.6789L35.6158 39.6456C36.011 39.25 36.0105 38.6092 35.6149 38.214C35.2197 37.8184 34.5785 37.8184 34.1833 38.2136L33.1505 39.2464H33.15C30.5753 36.361 29.0514 32.6896 28.8262 28.8289H30.2957C30.8551 28.8289 31.3086 28.3754 31.3086 27.816C31.3086 27.2567 30.8551 26.8031 30.2957 26.8031H28.8262C29.0514 22.9423 30.5752 19.2711 33.15 16.3857L34.1828 17.4185H34.1833C34.5785 17.8137 35.2197 17.8137 35.6149 17.418C36.0105 17.0228 36.011 16.3821 35.6158 15.9864L34.5825 14.9532C37.4684 12.378 41.1397 10.8541 45.0004 10.629V12.099C45.0004 12.6584 45.454 13.1119 46.0133 13.1119C46.5727 13.1119 47.0262 12.6584 47.0262 12.099V10.629C50.887 10.8542 54.5583 12.378 57.4441 14.9532L56.4109 15.9864C56.0152 16.3821 56.0152 17.0233 56.4109 17.419C56.8066 17.8142 57.4482 17.8142 57.8434 17.4185L58.8762 16.3857H58.8767C61.4514 19.2711 62.9753 22.9425 63.2005 26.8032H61.731C61.1716 26.8032 60.7181 27.2567 60.7181 27.8161C60.7181 28.3754 61.1716 28.829 61.731 28.829V28.8289Z" fill="#C7B299"/>
<path d="M53.3242 19.0754C51.0058 17.1359 48.0123 16.1968 45.0016 16.4649C41.9909 16.733 39.21 18.1863 37.2711 20.5046C35.3321 22.8234 34.3934 25.8174 34.6624 28.828C34.931 31.8387 36.3848 34.6191 38.7041 36.5576C39.1332 36.9167 39.7721 36.8597 40.1307 36.4306C40.4897 36.0014 40.4327 35.3625 40.0036 35.0035C38.104 33.4177 36.9094 31.144 36.6796 28.6801C36.4503 26.2161 37.2055 23.7612 38.7796 21.8517C40.3537 19.9426 42.6195 18.7333 45.0821 18.4887C47.5447 18.2441 50.0042 18.9834 51.9233 20.5458C53.8428 22.1081 55.0659 24.3663 55.326 26.8276C55.586 29.2884 54.8616 31.7524 53.3116 33.6814L49.1193 29.4891H49.1189C49.6597 28.4857 49.6828 27.2833 49.1808 26.2605C48.6794 25.2372 47.7144 24.5191 46.5903 24.3324C45.4661 24.1456 44.3211 24.5128 43.5154 25.3186C42.7097 26.1248 42.3429 27.2697 42.5297 28.3939C42.7169 29.518 43.435 30.4825 44.4582 30.984C45.4815 31.4855 46.6839 31.4624 47.6869 30.9216L53.9076 37.1423C54.3033 37.5366 54.9435 37.5357 55.3387 37.1409C55.7335 36.7457 55.7344 36.1054 55.3401 35.7098L54.7563 35.126C56.6912 32.8063 57.6273 29.8137 57.359 26.8044C57.0904 23.7956 55.6394 21.016 53.3242 19.0751L53.3242 19.0754ZM46.0142 29.3187C45.4064 29.3187 44.8588 28.9529 44.6264 28.3917C44.3936 27.8301 44.522 27.1844 44.9516 26.7543C45.3811 26.3247 46.0273 26.1963 46.5885 26.4287C47.1501 26.6612 47.516 27.2088 47.516 27.8165C47.515 28.6458 46.8435 29.3177 46.0142 29.3187L46.0142 29.3187Z" fill="#C7B299"/>
</svg>
