<svg width="49" height="56" viewBox="0 0 49 56" fill="none" xmlns="http://www.w3.org/2000/svg">
<path fill-rule="evenodd" clip-rule="evenodd" d="M48.1371 5.71056C48.1371 4.0107 46.8752 2.57381 45.1914 2.35474C40.5814 1.75359 30.04 0.467773 24.0685 0.467773C18.0971 0.467773 7.5556 1.75362 2.94567 2.35474C1.26173 2.57378 0 4.0107 0 5.71056V49.4964C0 52.7926 2.67519 55.4678 5.97141 55.4678H42.1661C45.4664 55.4678 48.1375 52.7926 48.1375 49.4964L48.1371 5.71056ZM46.5447 5.71056V49.4964C46.5447 51.9129 44.5862 53.8754 42.1657 53.8754H5.97096C3.55043 53.8754 1.59192 51.9129 1.59192 49.4964V5.71056C1.59192 4.81084 2.26059 4.05062 3.15234 3.93517C7.71848 3.33803 18.1559 2.06026 24.0682 2.06026C29.9805 2.06026 40.4185 3.33803 44.9841 3.93517C45.8758 4.05069 46.5445 4.81089 46.5445 5.71056H46.5447ZM22.0983 46.1376C22.0983 45.6995 21.7442 45.3414 21.3021 45.3414H16.1269C15.6888 45.3414 15.3307 45.6995 15.3307 46.1376V50.019C15.3307 50.4611 15.6888 50.8152 16.1269 50.8152H21.3021C21.7442 50.8152 22.0983 50.4611 22.0983 50.019V46.1376ZM32.8068 46.1376C32.8068 45.6995 32.4487 45.3414 32.0106 45.3414H26.8354C26.3933 45.3414 26.0392 45.6995 26.0392 46.1376V50.019C26.0392 50.4611 26.3933 50.8152 26.8354 50.8152H32.0106C32.4487 50.8152 32.8068 50.4611 32.8068 50.019V46.1376ZM11.3928 46.1376C11.3928 45.6995 11.0347 45.3414 10.5966 45.3414H5.42136C4.98327 45.3414 4.62517 45.6995 4.62517 46.1376V50.019C4.62517 50.4611 4.98327 50.8152 5.42136 50.8152H10.5966C11.0347 50.8152 11.3928 50.4611 11.3928 50.019V46.1376ZM43.511 37.5786C43.511 37.1405 43.1569 36.7824 42.7148 36.7824H37.5396C37.1015 36.7824 36.7434 37.1405 36.7434 37.5786V50.0196C36.7434 50.4616 37.1015 50.8158 37.5396 50.8158H42.7148C43.1569 50.8158 43.511 50.4616 43.511 50.0196V37.5786ZM16.9217 46.9338V49.2228H20.5046V46.9338H16.9217ZM6.21721 46.9338V49.2228H9.80005V46.9338H6.21721ZM27.6313 46.9338V49.2228H31.2141V46.9338H27.6313ZM38.3358 38.3747V49.2228H41.9186V38.3747H38.3358ZM11.3928 37.5786C11.3928 37.1405 11.0347 36.7824 10.5966 36.7824H5.42136C4.98327 36.7824 4.62517 37.1405 4.62517 37.5786V41.46C4.62517 41.9021 4.98327 42.2562 5.42136 42.2562H10.5966C11.0347 42.2562 11.3928 41.9021 11.3928 41.46V37.5786ZM22.0973 37.5786C22.0973 37.1405 21.7432 36.7824 21.3011 36.7824H16.1259C15.6878 36.7824 15.3297 37.1405 15.3297 37.5786V41.46C15.3297 41.9021 15.6878 42.2562 16.1259 42.2562H21.3011C21.7432 42.2562 22.0973 41.9021 22.0973 41.46V37.5786ZM32.8058 37.5786C32.8058 37.1405 32.4477 36.7824 32.0096 36.7824H26.8344C26.3923 36.7824 26.0382 37.1405 26.0382 37.5786V41.46C26.0382 41.9021 26.3923 42.2562 26.8344 42.2562H32.0096C32.4477 42.2562 32.8058 41.9021 32.8058 41.46V37.5786ZM6.21652 38.3747V40.6638H9.79937V38.3747H6.21652ZM27.6306 38.3747V40.6638H31.2134V38.3747H27.6306ZM16.9221 38.3747V40.6638H20.5049V38.3747H16.9221ZM11.3928 29.0235C11.3928 28.5814 11.0347 28.2273 10.5966 28.2273H5.42136C4.98327 28.2273 4.62517 28.5814 4.62517 29.0235V32.901C4.62517 33.343 4.98327 33.6971 5.42136 33.6971H10.5966C11.0347 33.6971 11.3928 33.343 11.3928 32.901V29.0235ZM32.8068 29.0235C32.8068 28.5814 32.4487 28.2273 32.0106 28.2273H26.8354C26.3933 28.2273 26.0392 28.5814 26.0392 29.0235V32.901C26.0392 33.343 26.3933 33.6971 26.8354 33.6971H32.0106C32.4487 33.6971 32.8068 33.343 32.8068 32.901V29.0235ZM43.5113 29.0235C43.5113 28.5814 43.1572 28.2273 42.7152 28.2273H37.5399C37.1018 28.2273 36.7437 28.5814 36.7437 29.0235V32.901C36.7437 33.343 37.1018 33.6971 37.5399 33.6971H42.7152C43.1572 33.6971 43.5113 33.343 43.5113 32.901V29.0235ZM22.0973 29.0235C22.0973 28.5814 21.7432 28.2273 21.3011 28.2273H16.1259C15.6878 28.2273 15.3297 28.5814 15.3297 29.0235V32.901C15.3297 33.343 15.6878 33.6971 16.1259 33.6971H21.3011C21.7432 33.6971 22.0973 33.343 22.0973 32.901V29.0235ZM6.21789 29.8197V32.1048H9.80074V29.8197H6.21789ZM27.6319 29.8197V32.1048H31.2148V29.8197H27.6319ZM38.3365 29.8197V32.1048H41.9193V29.8197H38.3365ZM16.9224 29.8197V32.1048H20.5053V29.8197H16.9224ZM22.0976 22.7135C22.0976 21.3757 21.0149 20.293 19.6771 20.293H17.7661C16.4283 20.293 15.3456 21.3757 15.3456 22.7135C15.3456 24.0513 16.4284 25.134 17.7661 25.134H19.6771C21.0149 25.134 22.0976 24.0513 22.0976 22.7135ZM11.3771 22.7135C11.3771 21.3757 10.2943 20.293 8.95655 20.293H7.04558C5.70776 20.293 4.62506 21.3757 4.62506 22.7135C4.62506 24.0513 5.70782 25.134 7.04558 25.134H8.95655C10.2944 25.134 11.3771 24.0513 11.3771 22.7135ZM43.5431 22.7135C43.5431 21.3757 42.4603 20.293 41.1226 20.293H39.2116C37.8738 20.293 36.7911 21.3757 36.7911 22.7135C36.7911 24.0513 37.8738 25.134 39.2116 25.134H41.1226C42.4604 25.134 43.5431 24.0513 43.5431 22.7135ZM32.8225 22.7135C32.8225 21.3757 31.7358 20.293 30.402 20.293H28.491C27.1532 20.293 26.0705 21.3757 26.0705 22.7135C26.0705 24.0513 27.1533 25.134 28.491 25.134H30.402C31.7358 25.134 32.8225 24.0513 32.8225 22.7135ZM20.5055 22.7135C20.5055 23.1711 20.1354 23.5417 19.6773 23.5417H17.7663C17.3087 23.5417 16.9382 23.1716 16.9382 22.7135C16.9382 22.2559 17.3083 21.8853 17.7663 21.8853H19.6773C20.1349 21.8853 20.5055 22.2554 20.5055 22.7135ZM41.9514 22.7135C41.9514 23.1711 41.5813 23.5417 41.1232 23.5417H39.2122C38.7546 23.5417 38.3841 23.1716 38.3841 22.7135C38.3841 22.2559 38.7542 21.8853 39.2122 21.8853H41.1232C41.5808 21.8853 41.9514 22.2554 41.9514 22.7135ZM31.2308 22.7135C31.2308 23.1711 30.8567 23.5417 30.4027 23.5417H28.4917C28.0341 23.5417 27.6635 23.1716 27.6635 22.7135C27.6635 22.2559 28.0336 21.8853 28.4917 21.8853H30.4027C30.8563 21.8853 31.2308 22.2554 31.2308 22.7135ZM9.78493 22.7135C9.78493 23.1711 9.41482 23.5417 8.95675 23.5417H7.04579C6.58816 23.5417 6.21762 23.1716 6.21762 22.7135C6.21762 22.2559 6.58772 21.8853 7.04579 21.8853H8.95675C9.41438 21.8853 9.78493 22.2554 9.78493 22.7135ZM43.5115 6.85684C43.5115 6.41876 43.1574 6.06065 42.7153 6.06065H5.42181C4.98373 6.06065 4.62563 6.41876 4.62563 6.85684V16.4351C4.62563 16.8772 4.98373 17.2313 5.42181 17.2313H42.7153C43.1574 17.2313 43.5115 16.8772 43.5115 16.4351V6.85684ZM6.218 7.65303V15.6389H41.9191V7.65303H6.218Z" fill="#C7B299"/>
</svg>
