<svg width="145" height="113" viewBox="0 0 145 113" fill="none" xmlns="http://www.w3.org/2000/svg">
<path d="M48.8718 112.915H0V61.3896H48.8718V112.915ZM2.24301 110.672H46.6288V63.6327L2.24301 63.6339V110.672Z" fill="#C7B299"/>
<path d="M80.7578 112.915H46.6289V75.0176H80.7578V112.915ZM48.8713 110.672H78.5148V77.2606L48.8713 77.2618V110.672Z" fill="#C7B299"/>
<path d="M73.5801 87.8379H75.8231V94.3692H73.5801V87.8379Z" fill="#C7B299"/>
<path d="M90.0879 17.2891H97.8669V19.5321H90.0879V17.2891Z" fill="#C7B299"/>
<path d="M121.975 17.2891H129.754V19.5321H121.975V17.2891Z" fill="#C7B299"/>
<path d="M59.7988 68.2051H67.5779V70.4481H59.7988V68.2051Z" fill="#C7B299"/>
<path d="M91.6934 68.2051H99.4724V70.4481H91.6934V68.2051Z" fill="#C7B299"/>
<path d="M112.654 112.915H78.5254V75.0176H112.654V112.915ZM80.7591 110.672H110.403V77.2606H80.7591V110.672Z" fill="#C7B299"/>
<path d="M83.4492 87.8379H85.6922V94.3692H83.4492V87.8379Z" fill="#C7B299"/>
<path d="M144.539 112.915H110.41V68.1992H144.539V112.915ZM112.653 110.672H142.296V70.4422H112.653V110.672Z" fill="#C7B299"/>
<path d="M137.361 83.2627H139.604V91.0418H137.361V83.2627Z" fill="#C7B299"/>
<path d="M1.12109 75.0176H47.7499V77.2606H1.12109V75.0176Z" fill="#C7B299"/>
<path d="M44.034 104.812H4.83594V82.1387H44.034V104.812ZM7.07894 102.569H41.791V84.3817H7.07894V102.569Z" fill="#C7B299"/>
<path d="M39.5027 73.8511C37.0081 73.8511 34.9805 71.8234 34.9805 69.3288C34.9805 66.8343 37.0082 64.8066 39.5027 64.8066C41.9973 64.8066 44.0249 66.8343 44.0249 69.3288C44.0249 71.8234 41.9972 73.8511 39.5027 73.8511ZM39.5027 67.0419C38.246 67.0419 37.2234 68.0646 37.2234 69.3213C37.2234 70.5779 38.246 71.6006 39.5027 71.6006C40.7594 71.6006 41.782 70.5779 41.782 69.3213C41.782 68.0646 40.7681 67.0419 39.5027 67.0419Z" fill="#C7B299"/>
<path d="M24.4304 73.8511C21.9358 73.8511 19.9082 71.8234 19.9082 69.3288C19.9082 66.8343 21.9359 64.8066 24.4304 64.8066C26.9249 64.8066 28.9526 66.8343 28.9526 69.3288C28.9526 71.8234 26.9249 73.8511 24.4304 73.8511ZM24.4304 67.0419C23.1737 67.0419 22.1511 68.0646 22.1511 69.3213C22.1511 70.5779 23.1737 71.6006 24.4304 71.6006C25.6871 71.6006 26.7097 70.5779 26.7097 69.3213C26.7097 68.0646 25.6959 67.0419 24.4304 67.0419Z" fill="#C7B299"/>
<path d="M9.3562 73.8511C6.8616 73.8511 4.83398 71.8234 4.83398 69.3288C4.83398 66.8343 6.86169 64.8066 9.3562 64.8066C11.8508 64.8066 13.8784 66.8343 13.8784 69.3288C13.8784 71.8234 11.8595 73.8511 9.3562 73.8511ZM9.3562 67.0419C8.09951 67.0419 7.07689 68.0646 7.07689 69.3213C7.07689 70.5779 8.09951 71.6006 9.3562 71.6006C10.6129 71.6006 11.6355 70.5779 11.6355 69.3213C11.6355 68.0646 10.6216 67.0419 9.3562 67.0419Z" fill="#C7B299"/>
<path d="M144.539 70.4479H110.41V61.3945H144.539V70.4479ZM112.653 68.2049H142.296V63.6375H112.653V68.2049Z" fill="#C7B299"/>
<path d="M47.7504 34.4542H1.12156C0.727275 34.4542 0.350547 34.2389 0.152778 33.8985C-0.0449903 33.558 -0.0537475 33.1275 0.144017 32.777L8.38865 18.2513C8.58642 17.9008 8.96319 17.6855 9.36622 17.6855H39.5115C39.9158 17.6855 40.2926 17.9008 40.4891 18.2513L48.7251 32.7856C48.9228 33.1361 48.9228 33.5567 48.7163 33.9071C48.511 34.2476 48.143 34.4541 47.7488 34.4541L47.7504 34.4542ZM3.05054 32.2112H45.8278L38.8559 19.9199H10.0109L3.05054 32.2112Z" fill="#C7B299"/>
<path d="M40.6253 19.9205H8.23633V0.927734H40.6253V19.9205ZM10.48 17.6775H38.3823V3.17074H10.48V17.6775Z" fill="#C7B299"/>
<path d="M142.934 24.9891H108.805V0.926758H142.934V24.9891ZM111.047 22.7461H140.691V3.16976H111.047V22.7461Z" fill="#C7B299"/>
<path d="M111.049 24.9891H76.9199V0.926758H111.049V24.9891ZM79.1536 22.7461H108.797V3.16976H79.1536V22.7461Z" fill="#C7B299"/>
<path d="M80.7578 77.2608H46.6289V61.3896H80.7578V77.2608ZM48.8713 75.0178H78.5148V63.6327H48.8713V75.0178Z" fill="#C7B299"/>
<path d="M112.654 77.2608H78.5254V61.3896H112.654V77.2608ZM80.7591 75.0178H110.403V63.6327H80.7591V75.0178Z" fill="#C7B299"/>
<path d="M25.686 63.6328H23.1827C17.8619 63.6328 13.5371 59.3083 13.5371 53.9873V50.8018H35.3388V53.9873C35.33 59.308 31.0056 63.6328 25.6859 63.6328H25.686ZM15.7716 53.0362V53.9788C15.7716 58.0604 19.0909 61.3813 23.1742 61.3813H25.6775C29.7591 61.3813 33.0801 58.062 33.0801 53.9788V53.0362H15.7716Z" fill="#C7B299"/>
<path d="M19.0308 49.2485C18.6629 49.2485 18.3574 48.9431 18.3574 48.5751C18.3574 47.8391 18.6353 47.4449 18.8331 47.1482C18.9858 46.9242 19.0759 46.7977 19.0759 46.4848C19.0759 46.1707 18.9858 46.0455 18.8331 45.8215C18.6353 45.5248 18.3574 45.1218 18.3574 44.3946C18.3574 43.6586 18.6353 43.2643 18.8331 42.9677C18.9858 42.7436 19.0759 42.6172 19.0759 42.3043C19.0759 41.9363 19.3813 41.6309 19.7493 41.6309C20.1173 41.6309 20.4227 41.9363 20.4227 42.3043C20.4227 43.0403 20.1448 43.4345 19.9471 43.7312C19.7944 43.9552 19.7042 44.0817 19.7042 44.3946C19.7042 44.7087 19.7944 44.8339 19.9471 45.0579C20.1448 45.3546 20.4227 45.7576 20.4227 46.4848C20.4227 47.2208 20.1448 47.6151 19.9471 47.9117C19.7944 48.1358 19.7042 48.2622 19.7042 48.5751C19.7042 48.9444 19.4076 49.2485 19.0308 49.2485Z" fill="#C7B299"/>
<path d="M24.0738 49.2485C23.7058 49.2485 23.4004 48.9431 23.4004 48.5751C23.4004 47.8391 23.6783 47.4449 23.876 47.1482C24.0287 46.9242 24.1189 46.7977 24.1189 46.4848C24.1189 46.1707 24.0287 46.0455 23.876 45.8215C23.6783 45.5248 23.4004 45.1218 23.4004 44.3946C23.4004 43.6586 23.6783 43.2643 23.876 42.9677C24.0287 42.7436 24.1189 42.6172 24.1189 42.3043C24.1189 41.9363 24.4243 41.6309 24.7923 41.6309C25.1603 41.6309 25.4657 41.9363 25.4657 42.3043C25.4657 43.0403 25.1878 43.4345 24.99 43.7312C24.8373 43.9552 24.7472 44.0817 24.7472 44.3946C24.7472 44.7087 24.8373 44.8339 24.99 45.0579C25.1878 45.3546 25.4657 45.7576 25.4657 46.4848C25.4657 47.2208 25.1878 47.6151 24.99 47.9117C24.8373 48.1358 24.7472 48.2622 24.7472 48.5751C24.746 48.9444 24.4506 49.2485 24.0738 49.2485Z" fill="#C7B299"/>
<path d="M29.1246 49.2485C28.7566 49.2485 28.4512 48.9431 28.4512 48.5751C28.4512 47.8391 28.729 47.4449 28.9268 47.1482C29.0795 46.9242 29.1696 46.7977 29.1696 46.4848C29.1696 46.1707 29.0795 46.0455 28.9268 45.8215C28.7291 45.5248 28.4512 45.1218 28.4512 44.3946C28.4512 43.6586 28.729 43.2643 28.9268 42.9677C29.0795 42.7436 29.1696 42.6172 29.1696 42.3043C29.1696 41.9363 29.475 41.6309 29.8431 41.6309C30.211 41.6309 30.5165 41.9363 30.5165 42.3043C30.5165 43.0403 30.2386 43.4345 30.0408 43.7312C29.8881 43.9552 29.798 44.0817 29.798 44.3946C29.798 44.7087 29.8881 44.8339 30.0408 45.0579C30.2386 45.3546 30.5165 45.7576 30.5165 46.4848C30.5165 47.2208 30.2386 47.6151 30.0408 47.9117C29.8881 48.1358 29.798 48.2622 29.798 48.5751C29.798 48.9444 29.4926 49.2485 29.1246 49.2485Z" fill="#C7B299"/>
</svg>
