<svg width="49" height="56" viewBox="0 0 49 56" fill="none" xmlns="http://www.w3.org/2000/svg">
<path d="M48.2502 25.7604V17.1618H43.2945V0.467773H35.6329V2.3147H30.0223V4.32572H3.4346V9.1389H30.0223V11.1504H35.6329V17.1619H26.3962V25.7605H29.2115V30.3346H26.0122V45.3026H12.8231V35.4706L18.3519 30.9755C18.8115 31.2277 19.3302 31.3836 19.8904 31.3836C21.6699 31.3836 23.1174 29.9361 23.1174 28.157C23.1174 26.3775 21.6699 24.9305 19.8904 24.9305C18.2465 24.9305 16.9009 26.1705 16.7037 27.762L12.8231 30.9453V24.93L0.5 24.9305V55.4678H8.54999V52.36H26.0115V55.4678H48.2492L48.2497 30.3337H45.5558V25.7597L48.2502 25.7604ZM30.0224 7.60526H4.96726V5.85788H30.0224V7.60526ZM19.8907 26.4638C20.8248 26.4638 21.5846 27.2237 21.5846 28.1572C21.5846 29.0913 20.8248 29.8506 19.8907 29.8506C18.9572 29.8506 18.1973 29.0908 18.1973 28.1572C18.1973 27.2236 18.9572 26.4638 19.8907 26.4638ZM12.8235 32.9282L16.9774 29.5206C17.0448 29.6635 17.116 29.8045 17.2027 29.9349L12.824 33.495L12.8235 32.9282ZM37.1666 2.00031H41.7623L41.7619 17.1618H37.1661L37.1666 2.00031ZM31.556 9.61714V3.84772H35.6334V9.61714H31.556ZM2.03376 26.4639H11.2907V45.3027H2.03376V26.4639ZM36.5576 53.9349H27.5462V50.8271H7.01844V53.9349H2.03438V46.8359H27.5466V31.8678H36.558V36.7672C33.2058 37.1493 30.5917 40.0001 30.5917 43.453C30.5917 46.9057 33.2058 49.7566 36.558 50.1387L36.5576 53.9349ZM30.7454 30.3347V25.7606H44.0232V30.3347H30.7454ZM32.1245 43.4524C32.1245 40.5853 34.4571 38.2527 37.3242 38.2527C40.1912 38.2527 42.5238 40.5853 42.5238 43.4524C42.5238 46.3195 40.1912 48.652 37.3242 48.652C34.4571 48.652 32.1245 46.3195 32.1245 43.4524ZM46.7181 53.9354H38.0907V50.1386C41.1907 49.7854 43.6566 47.3195 44.0098 44.2195H46.7181V53.9354ZM46.7181 31.8677V42.6861H44.0098C43.6561 39.5856 41.1907 37.1202 38.0907 36.767V31.8676L46.7181 31.8677ZM27.931 24.2272V18.6951H46.7181V24.2272H27.931Z" fill="#C7B299"/>
<path d="M37.3226 39.8428C35.3323 39.8428 33.7129 41.4622 33.7129 43.4525C33.7129 45.4423 35.3323 47.0617 37.3226 47.0617C39.3129 47.0617 40.9323 45.4423 40.9323 43.4525C40.9323 41.4617 39.3134 39.8428 37.3226 39.8428ZM37.3226 45.5284C36.1773 45.5284 35.2462 44.5972 35.2462 43.4524C35.2462 42.3075 36.1773 41.3759 37.3226 41.3759C38.4679 41.3759 39.399 42.3076 39.399 43.4524C39.3995 44.5972 38.4679 45.5284 37.3226 45.5284Z" fill="#C7B299"/>
</svg>
