<svg width="163" height="188" viewBox="0 0 163 188" fill="none" xmlns="http://www.w3.org/2000/svg">
<g style="mix-blend-mode:screen">
<path d="M162.659 86.5219V57.3924H145.871V0.837891H119.916V7.09474H100.908V13.9075H10.8369V30.2132H100.908V37.0276H119.916V57.3928H88.6243V86.5223H98.1615V102.018H87.3234V152.725H42.6424V119.418L61.3724 104.189C62.9293 105.044 64.6867 105.572 66.5843 105.572C72.6128 105.572 77.5166 100.668 77.5166 94.6412C77.5166 88.6126 72.6128 83.7105 66.5843 83.7105C61.0152 83.7105 56.4569 87.9115 55.7888 93.3027L42.6424 104.087V83.7088L0.895264 83.7104V187.162H28.1663V176.634H87.3209V187.162H162.656L162.658 102.015H153.532V86.5196L162.659 86.5219ZM100.909 25.0177H16.0291V19.098H100.909V25.0177ZM66.5855 88.905C69.7498 88.905 72.324 91.4791 72.324 94.6418C72.324 97.8061 69.7498 100.379 66.5855 100.379C63.4228 100.379 60.8487 97.8044 60.8487 94.6418C60.8487 91.4791 63.4229 88.905 66.5855 88.905ZM42.6436 110.804L56.7161 99.2606C56.9444 99.7448 57.1856 100.222 57.4791 100.664L42.6453 112.725L42.6436 110.804ZM125.111 6.02967H140.68L140.679 57.3924H125.11L125.111 6.02967ZM106.104 31.8333V12.2882H119.917V31.8333H106.104ZM6.09122 88.9054H37.451V152.726H6.09122V88.9054ZM123.048 181.969H92.5202V171.441H22.9779V181.969H6.09331V157.92H92.5215V107.212H123.049V123.81C111.693 125.105 102.837 134.762 102.837 146.459C102.837 158.156 111.693 167.814 123.049 169.109L123.048 181.969ZM103.358 102.018V86.5227H148.339V102.018H103.358ZM108.03 146.457C108.03 136.744 115.932 128.842 125.645 128.842C135.358 128.842 143.26 136.744 143.26 146.457C143.26 156.17 135.358 164.072 125.645 164.072C115.932 164.072 108.03 156.17 108.03 146.457ZM157.469 181.971H128.242V169.108C138.744 167.912 147.097 159.558 148.294 149.056H157.469V181.971ZM157.469 107.212V143.861H148.294C147.096 133.358 138.744 125.006 128.242 123.809V107.211L157.469 107.212ZM93.8236 81.328V62.5867H157.469V81.328H93.8236Z" fill="#5B7F7A" fill-opacity="0.08"/>
<path d="M125.64 134.229C118.897 134.229 113.411 139.716 113.411 146.458C113.411 153.199 118.897 158.685 125.64 158.685C132.383 158.685 137.869 153.199 137.869 146.458C137.869 139.714 132.384 134.229 125.64 134.229ZM125.64 153.491C121.76 153.491 118.606 150.336 118.606 146.458C118.606 142.579 121.76 139.423 125.64 139.423C129.52 139.423 132.674 142.58 132.674 146.458C132.676 150.336 129.52 153.491 125.64 153.491Z" fill="#5B7F7A" fill-opacity="0.08"/>
</g>
</svg>
