<svg width="240" height="60" viewBox="0 0 240 60" fill="none" xmlns="http://www.w3.org/2000/svg">
<path d="M4.4541 45.1895V53.7207H3.73926V45.1895H4.4541ZM7.37793 45.1895V45.8105H0.821289V45.1895H7.37793ZM15.207 50.2461H12.7754V49.6309H15.207C15.7148 49.6309 16.1269 49.5488 16.4433 49.3848C16.7636 49.2168 16.9961 48.9902 17.1406 48.7051C17.289 48.4199 17.3632 48.0996 17.3632 47.7441C17.3632 47.3965 17.289 47.0762 17.1406 46.7832C16.9961 46.4902 16.7636 46.2559 16.4433 46.0801C16.1269 45.9004 15.7148 45.8105 15.207 45.8105H13.0273V53.7207H12.3066V45.1895H15.207C15.832 45.1895 16.3574 45.2969 16.7832 45.5117C17.2129 45.7266 17.5371 46.0254 17.7558 46.4082C17.9746 46.791 18.0839 47.2324 18.0839 47.7324C18.0839 48.2559 17.9746 48.707 17.7558 49.0859C17.5371 49.4609 17.2148 49.748 16.789 49.9473C16.3632 50.1465 15.8359 50.2461 15.207 50.2461ZM25.2333 45.6992L22.2802 53.7207H21.5302L24.7529 45.1895H25.2743L25.2333 45.6992ZM27.9169 53.7207L24.9579 45.6992L24.9169 45.1895H25.4384L28.6669 53.7207H27.9169ZM27.3896 50.709V51.3301H22.8603V50.709H27.3896ZM40.1874 53.1055V53.7207H33.4843V53.1055H40.1874ZM33.6425 53.1055V55.7891H32.9276V53.1055H33.6425ZM40.8085 53.1055L40.8026 55.7891H40.0819V53.1055H40.8085ZM39.3202 45.1895V45.8105H35.4413V45.1895H39.3202ZM39.8944 45.1895V53.7207H39.1796V45.1895H39.8944ZM35.1835 45.1895H35.9042L35.7518 48.2656C35.7245 48.8164 35.6698 49.3262 35.5878 49.7949C35.5096 50.2637 35.412 50.6934 35.2948 51.084C35.1776 51.4746 35.0487 51.8242 34.9081 52.1328C34.7675 52.4375 34.621 52.7012 34.4686 52.9238C34.3163 53.1426 34.162 53.3203 34.0057 53.457C33.8534 53.5898 33.7069 53.6777 33.5663 53.7207H33.121V53.1055H33.496C33.5897 53.0078 33.7128 52.8477 33.8651 52.625C34.0175 52.3984 34.1737 52.0957 34.3339 51.7168C34.4979 51.334 34.6425 50.8594 34.7675 50.293C34.8964 49.7227 34.9843 49.0469 35.0311 48.2656L35.1835 45.1895ZM46.5575 52.4668L51.4149 45.1895H52.1356V53.7207H51.4149V46.4316L46.5575 53.7207H45.8368V45.1895H46.5575V52.4668ZM64.9627 53.0879L64.91 55.7773H64.2479V53.7207H63.41V53.0879H64.9627ZM57.8553 53.7207V45.1895H58.576V53.1055H63.4041V45.1895H64.1248V53.7207H57.8553ZM70.7351 52.4668L75.5925 45.1895H76.3132V53.7207H75.5925V46.4316L70.7351 53.7207H70.0144V45.1895H70.7351V52.4668ZM82.8064 52.4668L87.6638 45.1895H88.3845V53.7207H87.6638V46.4316L82.8064 53.7207H82.0857V45.1895H82.8064V52.4668ZM101.347 45.1895V53.7207H100.627V45.1895H101.347ZM106.691 45.1895L102.906 49.7188H101.06L100.996 49.0977H102.484L105.789 45.1895H106.691ZM106.052 53.7207L102.449 49.6367L102.865 49.0039L106.949 53.7207H106.052ZM114.608 45.6992L111.655 53.7207H110.905L114.128 45.1895H114.649L114.608 45.6992ZM117.292 53.7207L114.333 45.6992L114.292 45.1895H114.813L118.042 53.7207H117.292ZM116.764 50.709V51.3301H112.235V50.709H116.764ZM122.449 45.1895H123.169V47.5508C123.169 48.043 123.25 48.4375 123.41 48.7344C123.57 49.0273 123.808 49.2383 124.125 49.3672C124.441 49.4961 124.832 49.5605 125.296 49.5605C125.523 49.5605 125.744 49.5508 125.959 49.5312C126.173 49.5117 126.386 49.4844 126.597 49.4492C126.808 49.4141 127.017 49.3711 127.224 49.3203C127.435 49.2695 127.644 49.2129 127.851 49.1504V49.7715C127.656 49.8301 127.459 49.8848 127.259 49.9355C127.064 49.9863 126.861 50.0293 126.65 50.0645C126.443 50.0996 126.228 50.1289 126.005 50.1523C125.783 50.1719 125.546 50.1816 125.296 50.1816C124.699 50.1816 124.187 50.0957 123.761 49.9238C123.336 49.748 123.009 49.4688 122.783 49.0859C122.56 48.6992 122.449 48.1875 122.449 47.5508V45.1895ZM127.611 45.1895H128.332V53.7207H127.611V45.1895ZM139.354 53.1055V53.7207H134.555V53.1055H139.354ZM134.772 45.1895V53.7207H134.051V45.1895H134.772ZM138.756 49.0156V49.6309H134.555V49.0156H138.756ZM139.325 45.1895V45.8105H134.555V45.1895H139.325ZM149.738 51.0605H150.458C150.4 51.6348 150.242 52.1309 149.984 52.5488C149.726 52.9629 149.374 53.2812 148.929 53.5039C148.484 53.7266 147.947 53.8379 147.318 53.8379C146.833 53.8379 146.394 53.7461 145.999 53.5625C145.609 53.3789 145.273 53.1191 144.992 52.7832C144.71 52.4434 144.494 52.0371 144.341 51.5645C144.189 51.0918 144.113 50.5664 144.113 49.9883V48.9219C144.113 48.3438 144.189 47.8203 144.341 47.3516C144.494 46.8789 144.712 46.4727 144.998 46.1328C145.283 45.793 145.624 45.5312 146.023 45.3477C146.421 45.1641 146.871 45.0723 147.371 45.0723C147.976 45.0723 148.499 45.1836 148.941 45.4062C149.382 45.625 149.73 45.9414 149.984 46.3555C150.242 46.7695 150.4 47.2695 150.458 47.8555H149.738C149.683 47.3945 149.562 47.0039 149.374 46.6836C149.187 46.3633 148.927 46.1191 148.595 45.9512C148.267 45.7793 147.859 45.6934 147.371 45.6934C146.972 45.6934 146.617 45.7695 146.304 45.9219C145.992 46.0742 145.726 46.293 145.507 46.5781C145.289 46.8594 145.121 47.1973 145.003 47.5918C144.89 47.9863 144.833 48.4258 144.833 48.9102V49.9883C144.833 50.457 144.888 50.8887 144.998 51.2832C145.107 51.6777 145.267 52.0195 145.478 52.3086C145.693 52.5977 145.955 52.8223 146.263 52.9824C146.572 53.1426 146.923 53.2227 147.318 53.2227C147.822 53.2227 148.242 53.1426 148.578 52.9824C148.917 52.8184 149.181 52.5762 149.369 52.2559C149.556 51.9355 149.679 51.5371 149.738 51.0605ZM158.44 45.1895V53.7207H157.725V45.1895H158.44ZM161.364 45.1895V45.8105H154.807V45.1895H161.364ZM169.228 49.6191H166.826L166.814 49.0098H168.882C169.304 49.0098 169.663 48.9492 169.96 48.8281C170.257 48.707 170.482 48.5273 170.634 48.2891C170.79 48.0469 170.869 47.75 170.869 47.3984C170.869 47.0391 170.792 46.7422 170.64 46.5078C170.488 46.2695 170.259 46.0938 169.954 45.9805C169.65 45.8672 169.267 45.8105 168.806 45.8105H167.013V53.7207H166.292V45.1895H168.806C169.24 45.1895 169.628 45.2324 169.972 45.3184C170.316 45.4043 170.609 45.5391 170.851 45.7227C171.093 45.9062 171.277 46.1387 171.402 46.4199C171.531 46.6973 171.595 47.0293 171.595 47.416C171.595 47.7676 171.517 48.0859 171.361 48.3711C171.204 48.6523 170.984 48.8828 170.699 49.0625C170.417 49.2383 170.079 49.3477 169.685 49.3906L169.228 49.6191ZM169.175 53.7207H166.597L166.966 53.1055H169.175C169.597 53.1055 169.956 53.0352 170.253 52.8945C170.554 52.75 170.785 52.5449 170.945 52.2793C171.105 52.0137 171.185 51.6973 171.185 51.3301C171.185 51.0059 171.115 50.7148 170.974 50.457C170.833 50.1992 170.619 49.9961 170.329 49.8477C170.04 49.6953 169.673 49.6191 169.228 49.6191H167.734L167.746 49.0098H169.861L169.99 49.2266C170.372 49.2656 170.706 49.3848 170.992 49.584C171.281 49.7793 171.503 50.0273 171.66 50.3281C171.82 50.6289 171.9 50.959 171.9 51.3184C171.9 51.834 171.785 52.2715 171.554 52.6309C171.328 52.9863 171.009 53.2578 170.599 53.4453C170.193 53.6289 169.718 53.7207 169.175 53.7207ZM179.993 45.6992L177.039 53.7207H176.289L179.512 45.1895H180.034L179.993 45.6992ZM182.676 53.7207L179.717 45.6992L179.676 45.1895H180.198L183.426 53.7207H182.676ZM182.149 50.709V51.3301H177.619V50.709H182.149Z" fill="#EFEFEF"/>
<path d="M23.602 28.6026C22.6574 29.9921 21.3103 31.0656 19.5594 31.8216C17.8068 32.5792 15.7179 32.9785 13.2926 33.0193V35.1963H12.2662V33.0193C9.8598 32.9989 7.77716 32.6107 6.01518 31.8531C4.25319 31.097 2.89359 30.0235 1.94108 28.634C0.986996 27.2446 0.510742 25.5863 0.510742 23.6577C0.510742 21.7291 0.986996 20.0709 1.94108 18.6814C2.89359 17.2919 4.25319 16.22 6.01518 15.4624C7.77716 14.7063 9.86137 14.3165 12.2662 14.2961V12.1191H13.2926V14.2961C15.7195 14.3369 17.8068 14.7315 19.5594 15.4781C21.3119 16.2247 22.6589 17.2935 23.602 18.6814C24.5451 20.0709 25.0166 21.7291 25.0166 23.6577C25.0166 25.5659 24.5451 27.2147 23.602 28.6026ZM4.41037 29.7689C6.30753 31.2306 8.92457 32.004 12.2646 32.0857V15.1983C8.90571 15.2816 6.28239 16.0596 4.39623 17.5308C2.5085 19.0036 1.56542 21.0454 1.56542 23.6577C1.56542 26.27 2.51321 28.3071 4.41037 29.7689ZM21.1595 29.7531C23.0456 28.2819 23.9903 26.2496 23.9903 23.6577C23.9903 21.0454 23.0425 18.9973 21.1453 17.5151C19.2481 16.0329 16.6295 15.2596 13.291 15.1983V32.0873C16.65 32.004 19.2733 31.2259 21.1595 29.7531Z" fill="#EFEFEF"/>
<path d="M47.4819 28.7434H34.4501L31.5265 35.1202H30.376L40.4528 13.3477H41.4792L51.556 35.1202H50.4054L47.4819 28.7434ZM47.0779 27.8412L40.9809 14.5595L34.854 27.8412H47.0779Z" fill="#EFEFEF"/>
<path d="M58.71 13.3477H73.9187V14.2813H59.7662V22.7109H67.325C69.876 22.7109 71.8093 23.2248 73.1249 24.2496C74.4421 25.276 75.0991 26.796 75.0991 28.8063C75.0991 30.8795 74.4044 32.4513 73.0149 33.5185C71.6254 34.5858 69.6041 35.1202 66.9493 35.1202H58.71V13.3477ZM67.0452 34.2164C69.3668 34.2164 71.1193 33.7653 72.3013 32.8631C73.4833 31.9609 74.0743 30.6186 74.0743 28.8346C74.0743 27.0726 73.488 25.7617 72.317 24.9004C71.146 24.0406 69.3888 23.6099 67.0452 23.6099H59.7678V34.2164H67.0452Z" fill="#EFEFEF"/>
<path d="M97.8564 15.2605C99.381 16.5353 100.142 18.3035 100.142 20.5638C100.142 22.8445 99.3794 24.6222 97.8564 25.8985C96.3317 27.1732 94.2114 27.8113 91.4953 27.8113H84.9944V35.1202H83.9365V13.3477H91.4953C94.2114 13.3477 96.3317 13.9842 97.8564 15.2605ZM97.1569 25.2132C98.4631 24.1239 99.117 22.5741 99.117 20.5638C99.117 18.5739 98.4631 17.0335 97.1569 15.9443C95.8508 14.8566 93.985 14.3112 91.5582 14.3112H84.9959V26.8447H91.5582C93.985 26.8463 95.8508 26.3008 97.1569 25.2132Z" fill="#EFEFEF"/>
<path d="M110.087 13.3477H111.145V33.2843L126.665 13.3477H127.535V35.1202H126.509V15.1819L110.958 35.1186H110.087V13.3477Z" fill="#EFEFEF"/>
<path d="M145.535 24.6604H140.061V35.2354H139.003V13.4629H140.061V23.6953H145.535L153.715 13.4629H154.928L146.375 24.1008L155.519 35.2354H154.275L145.535 24.6604Z" fill="#EFEFEF"/>
<path d="M178.921 28.7434H165.89L162.966 35.1202H161.815L171.892 13.3477H172.919L182.995 35.1202H181.845L178.921 28.7434ZM178.517 27.8412L172.42 14.5595L166.293 27.8412H178.517Z" fill="#EFEFEF"/>
<path d="M195.442 0.361328H194.982V59.1202H195.442V0.361328Z" fill="#EFEFEF"/>
<path d="M214.963 10.1465H215.224V31.6911C215.224 33.1828 215.454 34.2752 215.914 34.9715C216.373 35.6678 217.162 36.0151 218.281 36.0151V36.2383H206.241V36.0151C207.062 36.0151 207.695 35.847 208.142 35.5122C208.589 35.1774 208.887 34.7168 209.036 34.1337C209.185 33.5506 209.259 32.7364 209.259 31.6927V29.6431V18.2365C209.259 15.1307 208.426 13.5148 206.761 13.3907V13.1298L214.963 10.1465Z" fill="#C7B299"/>
<path d="M221.448 10.1465H238.967V10.4074L229.947 20.3962C231.264 20.3962 232.474 20.5707 233.581 20.918C234.686 21.267 235.594 21.7196 236.302 22.2792C237.01 22.8387 237.612 23.4533 238.109 24.1245C238.606 24.7956 238.959 25.4416 239.172 26.0625C239.382 26.6834 239.489 27.2555 239.489 27.7773C239.489 28.8949 239.285 29.9637 238.875 30.9822C238.464 32.0008 237.85 32.9328 237.029 33.7785C236.209 34.6241 235.104 35.2874 233.711 35.7731C232.319 36.2572 230.717 36.4992 228.903 36.4992C228.032 36.4992 227.312 36.4804 226.742 36.4427C226.17 36.4049 225.381 36.2383 224.375 35.9397C223.369 35.641 222.504 35.1947 221.784 34.5974C220.766 33.7769 220.114 32.7395 219.827 31.4852C219.541 30.2309 219.703 29.0442 220.312 27.9251C220.92 26.806 221.896 26.0609 223.238 25.6884C224.059 25.4652 224.86 25.5391 225.642 25.9116C226.424 26.2841 226.965 26.8311 227.264 27.551C227.562 28.2725 227.55 29.1039 227.226 30.0486C226.58 29.6761 225.953 29.6824 225.343 30.0675C224.733 30.4525 224.43 31.13 224.43 32.0982C224.43 33.4405 224.827 34.4716 225.623 35.1915C226.418 35.913 227.262 36.2729 228.158 36.2729C229.724 36.2729 230.972 35.4713 231.904 33.8681C232.836 32.2648 233.301 30.2341 233.301 27.7742C233.301 27.1785 233.213 26.5686 233.04 25.9478C232.866 25.3269 232.598 24.7123 232.238 24.1025C231.878 23.4942 231.35 22.9912 230.654 22.5935C229.958 22.1959 229.162 21.9978 228.268 21.9978V21.7746L234.492 14.8414H227.746C225.36 14.8414 223.658 15.1904 222.639 15.8851C221.621 16.5814 221.024 17.7115 220.851 19.2771L220.628 19.2032L221.448 10.1465Z" fill="#C7B299"/>
</svg>
