<svg width="169" height="47" viewBox="0 0 169 47" fill="none" xmlns="http://www.w3.org/2000/svg">
<path d="M16.4972 26.2098C15.8299 27.1912 14.8785 27.9495 13.6418 28.4835C12.4039 29.0186 10.9285 29.3006 9.21549 29.3295V30.8671H8.49054V29.3295C6.79085 29.315 5.31986 29.0408 4.07535 28.5057C2.83084 27.9717 1.87053 27.2135 1.19776 26.2321C0.523884 25.2507 0.1875 24.0794 0.1875 22.7172C0.1875 21.355 0.523884 20.1838 1.19776 19.2024C1.87053 18.221 2.83084 17.4638 4.07535 16.9287C5.31986 16.3947 6.79196 16.1194 8.49054 16.105V14.5674H9.21549V16.105C10.9296 16.1338 12.4039 16.4125 13.6418 16.9398C14.8796 17.4672 15.8311 18.2221 16.4972 19.2024C17.1633 20.1838 17.4963 21.355 17.4963 22.7172C17.4963 24.065 17.1633 25.2296 16.4972 26.2098ZM2.94186 27.0336C4.28185 28.0661 6.13029 28.6123 8.48943 28.67V16.7422C6.11697 16.8011 4.26408 17.3506 2.93187 18.3897C1.59854 19.43 0.93243 20.8721 0.93243 22.7172C0.93243 24.5623 1.60187 26.0011 2.94186 27.0336ZM14.7719 27.0225C16.1042 25.9834 16.7714 24.5479 16.7714 22.7172C16.7714 20.8721 16.1019 19.4255 14.7619 18.3786C13.422 17.3317 11.5724 16.7855 9.21438 16.7422V28.6711C11.5868 28.6123 13.4397 28.0627 14.7719 27.0225Z" fill="#333333"/>
<path d="M33.3633 26.3088H24.1588L22.0939 30.8128H21.2812L28.3986 15.4346H29.1236L36.2409 30.8128H35.4283L33.3633 26.3088ZM33.078 25.6715L28.7716 16.2905L24.4442 25.6715H33.078Z" fill="#333333"/>
<path d="M41.2969 15.4346H52.039V16.094H42.0429V22.0479H47.3818C49.1836 22.0479 50.5491 22.4109 51.4783 23.1348C52.4087 23.8597 52.8727 24.9333 52.8727 26.3532C52.8727 27.8175 52.382 28.9277 51.4006 29.6815C50.4192 30.4353 48.9915 30.8128 47.1164 30.8128H41.2969V15.4346ZM47.1842 30.1744C48.8239 30.1744 50.0618 29.8558 50.8966 29.2186C51.7315 28.5813 52.1489 27.6332 52.1489 26.3732C52.1489 25.1287 51.7348 24.2028 50.9077 23.5944C50.0806 22.9871 48.8394 22.6829 47.1842 22.6829H42.044V30.1744H47.1842Z" fill="#333333"/>
<path d="M68.945 16.7857C70.0219 17.686 70.5592 18.935 70.5592 20.5314C70.5592 22.1423 70.0208 23.3979 68.945 24.2994C67.8682 25.1997 66.3705 25.6505 64.4521 25.6505H59.8604V30.8128H59.1133V15.4346H64.4521C66.3705 15.4346 67.8682 15.8842 68.945 16.7857ZM68.451 23.8153C69.3736 23.046 69.8354 21.9513 69.8354 20.5314C69.8354 19.1259 69.3736 18.0379 68.451 17.2686C67.5285 16.5003 66.2107 16.1151 64.4966 16.1151H59.8615V24.9677H64.4966C66.2107 24.9688 67.5285 24.5836 68.451 23.8153Z" fill="#333333"/>
<path d="M77.582 15.4346H78.3292V29.5161L89.2911 15.4346H89.9061V30.8128H89.1812V16.7301L78.1971 30.8117H77.582V15.4346Z" fill="#333333"/>
<path d="M102.62 23.4255H98.753V30.8948H98.0059V15.5166H98.753V22.7439H102.62L108.397 15.5166H109.254L103.213 23.0303L109.672 30.8948H108.792L102.62 23.4255Z" fill="#333333"/>
<path d="M126.201 26.3088H116.997L114.932 30.8128H114.119L121.237 15.4346H121.961L129.079 30.8128H128.266L126.201 26.3088ZM125.916 25.6715L121.61 16.2905L117.282 25.6715H125.916Z" fill="#333333"/>
<path d="M137.887 0.759766H137.531V46.2523H137.887V0.759766Z" fill="#333333"/>
<path d="M151.66 13.1738H151.845V28.3911C151.845 29.4446 152.007 30.2162 152.332 30.708C152.656 31.1998 153.214 31.4452 154.004 31.4452V31.6028H145.5V31.4452C146.08 31.4452 146.527 31.3264 146.842 31.0899C147.159 30.8535 147.368 30.5282 147.474 30.1163C147.579 29.7044 147.632 29.1293 147.632 28.3922V26.9445V18.8879C147.632 16.6942 147.043 15.5529 145.867 15.4652V15.2809L151.66 13.1738Z" fill="#C7B299"/>
<path d="M156.241 13.1738H168.615V13.3581L162.244 20.4133C163.174 20.4133 164.029 20.5365 164.811 20.7819C165.591 21.0284 166.233 21.3481 166.733 21.7433C167.233 22.1385 167.658 22.5726 168.009 23.0467C168.36 23.5207 168.61 23.977 168.76 24.4155C168.909 24.854 168.984 25.2581 168.984 25.6267C168.984 26.4161 168.84 27.171 168.55 27.8904C168.26 28.6098 167.826 29.2681 167.247 29.8654C166.667 30.4627 165.887 30.9312 164.903 31.2742C163.919 31.6161 162.788 31.7871 161.507 31.7871C160.892 31.7871 160.383 31.7738 159.98 31.7471C159.576 31.7205 159.019 31.6028 158.309 31.3919C157.598 31.181 156.987 30.8657 156.479 30.4438C155.76 29.8643 155.299 29.1316 155.097 28.2456C154.895 27.3597 155.009 26.5215 155.439 25.7311C155.868 24.9406 156.558 24.4144 157.506 24.1513C158.085 23.9936 158.652 24.0458 159.203 24.3089C159.756 24.5721 160.138 24.9584 160.349 25.4669C160.56 25.9764 160.551 26.5637 160.322 27.2309C159.866 26.9678 159.423 26.9723 158.992 27.2443C158.562 27.5163 158.347 27.9947 158.347 28.6786C158.347 29.6267 158.628 30.355 159.19 30.8634C159.752 31.373 160.348 31.6272 160.981 31.6272C162.087 31.6272 162.968 31.0611 163.626 29.9287C164.285 28.7963 164.613 27.3619 164.613 25.6245C164.613 25.2037 164.551 24.773 164.429 24.3345C164.306 23.896 164.117 23.4619 163.863 23.0311C163.609 22.6015 163.236 22.2462 162.744 21.9653C162.252 21.6845 161.69 21.5446 161.058 21.5446V21.3869L165.455 16.4899H160.69C159.005 16.4899 157.802 16.7364 157.083 17.2271C156.364 17.7189 155.942 18.5171 155.82 19.6229L155.662 19.5707L156.241 13.1738Z" fill="#C7B299"/>
</svg>
