<svg width="239" height="84" viewBox="0 0 239 84" fill="none" xmlns="http://www.w3.org/2000/svg">
<path d="M3.94336 52.7559V61.2871H3.22852V52.7559H3.94336ZM6.86719 52.7559V53.377H0.310547V52.7559H6.86719ZM14.6962 57.8125H12.2646V57.1973H14.6962C15.2041 57.1973 15.6162 57.1152 15.9326 56.9512C16.2529 56.7832 16.4853 56.5566 16.6298 56.2715C16.7783 55.9863 16.8525 55.666 16.8525 55.3105C16.8525 54.9629 16.7783 54.6426 16.6298 54.3496C16.4853 54.0566 16.2529 53.8223 15.9326 53.6465C15.6162 53.4668 15.2041 53.377 14.6962 53.377H12.5166V61.2871H11.7959V52.7559H14.6962C15.3212 52.7559 15.8466 52.8633 16.2724 53.0781C16.7021 53.293 17.0263 53.5918 17.2451 53.9746C17.4638 54.3574 17.5732 54.7988 17.5732 55.2988C17.5732 55.8223 17.4638 56.2734 17.2451 56.6523C17.0263 57.0273 16.7041 57.3145 16.2783 57.5137C15.8525 57.7129 15.3252 57.8125 14.6962 57.8125ZM24.7226 53.2656L21.7695 61.2871H21.0195L24.2421 52.7559H24.7636L24.7226 53.2656ZM27.4062 61.2871L24.4472 53.2656L24.4062 52.7559H24.9277L28.1562 61.2871H27.4062ZM26.8788 58.2754V58.8965H22.3495V58.2754H26.8788ZM39.6766 60.6719V61.2871H32.9735V60.6719H39.6766ZM33.1317 60.6719V63.3555H32.4169V60.6719H33.1317ZM40.2977 60.6719L40.2919 63.3555H39.5712V60.6719H40.2977ZM38.8095 52.7559V53.377H34.9305V52.7559H38.8095ZM39.3837 52.7559V61.2871H38.6688V52.7559H39.3837ZM34.6727 52.7559H35.3934L35.2411 55.832C35.2137 56.3828 35.1591 56.8926 35.077 57.3613C34.9989 57.8301 34.9012 58.2598 34.7841 58.6504C34.6669 59.041 34.538 59.3906 34.3973 59.6992C34.2567 60.0039 34.1102 60.2676 33.9579 60.4902C33.8055 60.709 33.6512 60.8867 33.495 61.0234C33.3427 61.1562 33.1962 61.2441 33.0555 61.2871H32.6102V60.6719H32.9852C33.079 60.5742 33.202 60.4141 33.3544 60.1914C33.5067 59.9648 33.663 59.6621 33.8231 59.2832C33.9872 58.9004 34.1317 58.4258 34.2567 57.8594C34.3856 57.2891 34.4735 56.6133 34.5204 55.832L34.6727 52.7559ZM46.0467 60.0332L50.9041 52.7559H51.6248V61.2871H50.9041V53.998L46.0467 61.2871H45.326V52.7559H46.0467V60.0332ZM64.452 60.6543L64.3992 63.3438H63.7371V61.2871H62.8992V60.6543H64.452ZM57.3445 61.2871V52.7559H58.0652V60.6719H62.8934V52.7559H63.6141V61.2871H57.3445ZM70.2244 60.0332L75.0818 52.7559H75.8025V61.2871H75.0818V53.998L70.2244 61.2871H69.5037V52.7559H70.2244V60.0332ZM82.2956 60.0332L87.153 52.7559H87.8737V61.2871H87.153V53.998L82.2956 61.2871H81.5749V52.7559H82.2956V60.0332ZM100.837 52.7559V61.2871H100.116V52.7559H100.837ZM106.18 52.7559L102.395 57.2852H100.549L100.485 56.6641H101.973L105.278 52.7559H106.18ZM105.542 61.2871L101.938 57.2031L102.354 56.5703L106.438 61.2871H105.542ZM114.097 53.2656L111.144 61.2871H110.394L113.617 52.7559H114.138L114.097 53.2656ZM116.781 61.2871L113.822 53.2656L113.781 52.7559H114.302L117.531 61.2871H116.781ZM116.254 58.2754V58.8965H111.724V58.2754H116.254ZM121.938 52.7559H122.659V55.1172C122.659 55.6094 122.739 56.0039 122.899 56.3008C123.059 56.5938 123.297 56.8047 123.614 56.9336C123.93 57.0625 124.321 57.127 124.786 57.127C125.012 57.127 125.233 57.1172 125.448 57.0977C125.663 57.0781 125.876 57.0508 126.086 57.0156C126.297 56.9805 126.506 56.9375 126.713 56.8867C126.924 56.8359 127.133 56.7793 127.34 56.7168V57.3379C127.145 57.3965 126.948 57.4512 126.749 57.502C126.553 57.5527 126.35 57.5957 126.139 57.6309C125.932 57.666 125.717 57.6953 125.495 57.7188C125.272 57.7383 125.036 57.748 124.786 57.748C124.188 57.748 123.676 57.6621 123.251 57.4902C122.825 57.3145 122.499 57.0352 122.272 56.6523C122.049 56.2656 121.938 55.7539 121.938 55.1172V52.7559ZM127.1 52.7559H127.821V61.2871H127.1V52.7559ZM138.843 60.6719V61.2871H134.044V60.6719H138.843ZM134.261 52.7559V61.2871H133.541V52.7559H134.261ZM138.246 56.582V57.1973H134.044V56.582H138.246ZM138.814 52.7559V53.377H134.044V52.7559H138.814ZM149.227 58.627H149.948C149.889 59.2012 149.731 59.6973 149.473 60.1152C149.215 60.5293 148.864 60.8477 148.418 61.0703C147.973 61.293 147.436 61.4043 146.807 61.4043C146.323 61.4043 145.883 61.3125 145.489 61.1289C145.098 60.9453 144.762 60.6855 144.481 60.3496C144.2 60.0098 143.983 59.6035 143.831 59.1309C143.678 58.6582 143.602 58.1328 143.602 57.5547V56.4883C143.602 55.9102 143.678 55.3867 143.831 54.918C143.983 54.4453 144.202 54.0391 144.487 53.6992C144.772 53.3594 145.114 53.0977 145.512 52.9141C145.911 52.7305 146.36 52.6387 146.86 52.6387C147.465 52.6387 147.989 52.75 148.43 52.9727C148.872 53.1914 149.219 53.5078 149.473 53.9219C149.731 54.3359 149.889 54.8359 149.948 55.4219H149.227C149.172 54.9609 149.051 54.5703 148.864 54.25C148.676 53.9297 148.416 53.6855 148.084 53.5176C147.756 53.3457 147.348 53.2598 146.86 53.2598C146.461 53.2598 146.106 53.3359 145.793 53.4883C145.481 53.6406 145.215 53.8594 144.997 54.1445C144.778 54.4258 144.61 54.7637 144.493 55.1582C144.379 55.5527 144.323 55.9922 144.323 56.4766V57.5547C144.323 58.0234 144.377 58.4551 144.487 58.8496C144.596 59.2441 144.756 59.5859 144.967 59.875C145.182 60.1641 145.444 60.3887 145.752 60.5488C146.061 60.709 146.413 60.7891 146.807 60.7891C147.311 60.7891 147.731 60.709 148.067 60.5488C148.407 60.3848 148.67 60.1426 148.858 59.8223C149.045 59.502 149.168 59.1035 149.227 58.627ZM157.929 52.7559V61.2871H157.214V52.7559H157.929ZM160.853 52.7559V53.377H154.296V52.7559H160.853ZM168.717 57.1855H166.315L166.303 56.5762H168.371C168.793 56.5762 169.153 56.5156 169.45 56.3945C169.746 56.2734 169.971 56.0938 170.123 55.8555C170.28 55.6133 170.358 55.3164 170.358 54.9648C170.358 54.6055 170.282 54.3086 170.129 54.0742C169.977 53.8359 169.748 53.6602 169.444 53.5469C169.139 53.4336 168.756 53.377 168.295 53.377H166.502V61.2871H165.782V52.7559H168.295C168.729 52.7559 169.118 52.7988 169.461 52.8848C169.805 52.9707 170.098 53.1055 170.34 53.2891C170.582 53.4727 170.766 53.7051 170.891 53.9863C171.02 54.2637 171.084 54.5957 171.084 54.9824C171.084 55.334 171.006 55.6523 170.85 55.9375C170.694 56.2188 170.473 56.4492 170.188 56.6289C169.907 56.8047 169.569 56.9141 169.174 56.957L168.717 57.1855ZM168.664 61.2871H166.086L166.455 60.6719H168.664C169.086 60.6719 169.446 60.6016 169.743 60.4609C170.043 60.3164 170.274 60.1113 170.434 59.8457C170.594 59.5801 170.674 59.2637 170.674 58.8965C170.674 58.5723 170.604 58.2812 170.463 58.0234C170.323 57.7656 170.108 57.5625 169.819 57.4141C169.53 57.2617 169.163 57.1855 168.717 57.1855H167.223L167.235 56.5762H169.35L169.479 56.793C169.862 56.832 170.196 56.9512 170.481 57.1504C170.77 57.3457 170.993 57.5938 171.149 57.8945C171.309 58.1953 171.389 58.5254 171.389 58.8848C171.389 59.4004 171.274 59.8379 171.043 60.1973C170.817 60.5527 170.498 60.8242 170.088 61.0117C169.682 61.1953 169.207 61.2871 168.664 61.2871ZM179.482 53.2656L176.529 61.2871H175.779L179.001 52.7559H179.523L179.482 53.2656ZM182.165 61.2871L179.206 53.2656L179.165 52.7559H179.687L182.915 61.2871H182.165ZM181.638 58.2754V58.8965H177.109V58.2754H181.638Z" fill="#EFEFEF"/>
<path d="M23.0913 36.169C22.1466 37.5585 20.7996 38.632 19.0486 39.388C17.2961 40.1456 15.2071 40.5449 12.7819 40.5857V42.7627H11.7555V40.5857C9.34905 40.5653 7.26642 40.1771 5.50444 39.4195C3.74245 38.6634 2.38284 37.5899 1.43033 36.2004C0.476253 34.811 0 33.1527 0 31.2241C0 29.2955 0.476253 27.6373 1.43033 26.2478C2.38284 24.8583 3.74245 23.7864 5.50444 23.0288C7.26642 22.2727 9.35063 21.8829 11.7555 21.8625V19.6855H12.7819V21.8625C15.2087 21.9034 17.2961 22.2979 19.0486 23.0445C20.8012 23.7911 22.1482 24.8599 23.0913 26.2478C24.0344 27.6373 24.5059 29.2955 24.5059 31.2241C24.5059 33.1323 24.0344 34.7811 23.0913 36.169ZM3.89963 37.3353C5.79679 38.797 8.41383 39.5704 11.7539 39.6521V22.7647C8.39497 22.848 5.77164 23.626 3.88549 25.0972C1.99776 26.57 1.05468 28.6118 1.05468 31.2241C1.05468 33.8364 2.00247 35.8735 3.89963 37.3353ZM20.6487 37.3195C22.5349 35.8483 23.4795 33.816 23.4795 31.2241C23.4795 28.6118 22.5317 26.5637 20.6346 25.0815C18.7374 23.5993 16.1188 22.826 12.7803 22.7647V39.6537C16.1392 39.5704 18.7626 38.7923 20.6487 37.3195Z" fill="#EFEFEF"/>
<path d="M46.9711 36.3098H33.9393L31.0158 42.6866H29.8652L39.942 20.9141H40.9684L51.0452 42.6866H49.8947L46.9711 36.3098ZM46.5672 35.4076L40.4702 22.1259L34.3433 35.4076H46.5672Z" fill="#EFEFEF"/>
<path d="M58.1992 20.9141H73.4079V21.8477H59.2555V30.2773H66.8142C69.3653 30.2773 71.2986 30.7912 72.6142 31.8161C73.9313 32.8424 74.5884 34.3624 74.5884 36.3727C74.5884 38.4459 73.8936 40.0177 72.5042 41.085C71.1147 42.1522 69.0933 42.6866 66.4386 42.6866H58.1992V20.9141ZM66.5345 41.7828C68.856 41.7828 70.6086 41.3317 71.7906 40.4295C72.9726 39.5273 73.5635 38.185 73.5635 36.401C73.5635 34.639 72.9773 33.3281 71.8063 32.4668C70.6353 31.607 68.878 31.1763 66.5345 31.1763H59.257V41.7828H66.5345Z" fill="#EFEFEF"/>
<path d="M97.3456 22.8269C98.8703 24.1017 99.631 25.8699 99.631 28.1302C99.631 30.4109 98.8687 32.1886 97.3456 33.4649C95.821 34.7396 93.7006 35.3777 90.9846 35.3777H84.4836V42.6866H83.4258V20.9141H90.9846C93.7006 20.9141 95.821 21.5506 97.3456 22.8269ZM96.6462 32.7796C97.9523 31.6903 98.6062 30.1405 98.6062 28.1302C98.6062 26.1403 97.9523 24.5999 96.6462 23.5107C95.34 22.423 93.4743 21.8776 91.0474 21.8776H84.4852V34.4111H91.0474C93.4743 34.4127 95.34 33.8672 96.6462 32.7796Z" fill="#EFEFEF"/>
<path d="M109.576 20.9141H110.634V40.8507L126.154 20.9141H127.025V42.6866H125.998V22.7483L110.447 42.685H109.576V20.9141Z" fill="#EFEFEF"/>
<path d="M145.025 32.2268H139.55V42.8018H138.492V21.0293H139.55V31.2617H145.025L153.204 21.0293H154.418L145.864 31.6672L155.009 42.8018H153.764L145.025 32.2268Z" fill="#EFEFEF"/>
<path d="M178.411 36.3098H165.379L162.455 42.6866H161.305L171.381 20.9141H172.408L182.485 42.6866H181.334L178.411 36.3098ZM178.007 35.4076L171.91 22.1259L165.783 35.4076H178.007Z" fill="#EFEFEF"/>
<path d="M195.029 0.136719H194.375V83.8082H195.029V0.136719Z" fill="#EFEFEF"/>
<path d="M214.452 17.7129H214.713V39.2575C214.713 40.7492 214.943 41.8416 215.403 42.5379C215.862 43.2342 216.651 43.5815 217.77 43.5815V43.8047H205.73V43.5815C206.551 43.5815 207.184 43.4134 207.631 43.0786C208.079 42.7438 208.376 42.2832 208.525 41.7001C208.674 41.117 208.748 40.3028 208.748 39.2591V37.2095V25.8029C208.748 22.6971 207.915 21.0813 206.251 20.9571V20.6962L214.452 17.7129Z" fill="#C7B299"/>
<path d="M220.937 17.7129H238.457V17.9738L229.436 27.9626C230.753 27.9626 231.963 28.1371 233.07 28.4844C234.175 28.8334 235.083 29.286 235.791 29.8456C236.5 30.4052 237.102 31.0197 237.598 31.6909C238.095 32.362 238.449 33.0081 238.661 33.6289C238.871 34.2498 238.978 34.8219 238.978 35.3437C238.978 36.4613 238.774 37.5301 238.364 38.5486C237.954 39.5672 237.339 40.4992 236.519 41.3449C235.698 42.1905 234.593 42.8538 233.2 43.3395C231.808 43.8236 230.206 44.0657 228.392 44.0657C227.522 44.0657 226.802 44.0468 226.231 44.0091C225.659 43.9713 224.87 43.8047 223.864 43.5061C222.858 43.2075 221.994 42.7611 221.274 42.1638C220.255 41.3433 219.603 40.3059 219.317 39.0516C219.031 37.7973 219.193 36.6106 219.801 35.4915C220.409 34.3724 221.385 33.6273 222.728 33.2548C223.548 33.0316 224.35 33.1055 225.131 33.478C225.914 33.8505 226.454 34.3975 226.753 35.1174C227.052 35.8389 227.039 36.6703 226.715 37.615C226.069 37.2425 225.442 37.2488 224.832 37.6339C224.222 38.0189 223.919 38.6964 223.919 39.6646C223.919 41.0069 224.317 42.038 225.112 42.7579C225.907 43.4794 226.751 43.8393 227.647 43.8393C229.213 43.8393 230.461 43.0377 231.393 41.4345C232.325 39.8312 232.79 37.8005 232.79 35.3406C232.79 34.7449 232.702 34.135 232.529 33.5142C232.355 32.8933 232.088 32.2787 231.728 31.6689C231.368 31.0606 230.84 30.5576 230.143 30.16C229.447 29.7623 228.652 29.5642 227.757 29.5642V29.3411L233.982 22.4079H227.235C224.849 22.4079 223.147 22.7568 222.129 23.4515C221.11 24.1478 220.513 25.278 220.34 26.8435L220.117 26.7696L220.937 17.7129Z" fill="#C7B299"/>
</svg>
