<svg width="27" height="27" viewBox="0 0 27 27" fill="none" xmlns="http://www.w3.org/2000/svg">
<path d="M8.91744 19.9314L13.2453 15.5742L17.6025 19.9314L19.4868 18.0472L15.1295 13.6899L19.4868 9.33269L17.6025 7.44824L13.2453 11.8057L8.91744 7.44824L7.0332 9.33269L11.3611 13.6899L7.0332 18.0472L8.91744 19.9314Z" fill="#FF2121"/>
<path d="M13.2739 1.47149C19.9276 1.47149 25.3448 6.88867 25.3448 13.5424C25.3448 20.1961 19.9276 25.6133 13.2739 25.6133C6.62022 25.6133 1.20304 20.1961 1.20304 13.5424C1.20304 6.88867 6.62022 1.47149 13.2739 1.47149ZM13.2739 0.293945C5.94307 0.293945 0.0253906 6.21162 0.0253906 13.5425C0.0253906 20.8733 5.94307 26.791 13.2739 26.791C20.6048 26.791 26.5225 20.8733 26.5225 13.5425C26.5225 6.21162 20.6048 0.293945 13.2739 0.293945Z" fill="#FF2121"/>
</svg>
