<svg width="38" height="39" viewBox="0 0 38 39" fill="none" xmlns="http://www.w3.org/2000/svg">
<path d="M19.1852 34.2744C16.0302 34.2744 13.0858 33.324 10.6261 31.7067L4.64539 33.6162L6.58407 27.841C4.71869 25.2821 3.6216 22.1294 3.6216 18.73C3.6216 10.1583 10.5987 3.18585 19.1762 3.18585C27.7536 3.18585 34.7308 10.1583 34.7308 18.73C34.7308 27.3015 27.7536 34.2742 19.1762 34.2742H19.1852V34.2744ZM19.1852 0.243164C8.97051 0.243164 0.68597 8.52293 0.68597 18.7303C0.68597 22.221 1.65531 25.4925 3.33772 28.2797L0 38.1948L10.2421 34.9143C12.9796 36.427 16.057 37.2194 19.1852 37.2171C29.3997 37.2171 37.6845 28.9379 37.6845 18.7303C37.6842 8.52293 29.3997 0.243164 19.1852 0.243164Z" fill="#FEFEFE"/>
<path d="M19.1854 3.18555C10.608 3.18555 3.63086 10.158 3.63086 18.7297C3.63086 22.1291 4.7282 25.2818 6.59359 27.8407L4.65491 33.6159L10.6353 31.7064C13.0951 33.333 16.0304 34.2741 19.1945 34.2741C27.7719 34.2741 34.7491 27.3014 34.7491 18.73C34.7491 10.1582 27.7719 3.1858 19.1945 3.1858H19.1854V3.18555Z" fill="url(#paint0_linear_180_8)"/>
<path d="M14.8415 11.0817C14.5398 10.3599 14.3111 10.3325 13.8541 10.314C13.6805 10.3028 13.5067 10.2968 13.3327 10.2959C12.7381 10.2959 12.1164 10.4695 11.7414 10.8532C11.2844 11.3193 10.1504 12.4066 10.1504 14.6364C10.1504 16.8663 11.7781 19.0229 11.9975 19.3246C12.2261 19.6258 15.1708 24.2681 19.7429 26.1601C23.3183 27.6405 24.3792 27.5033 25.193 27.3297C26.3817 27.0739 27.8723 26.1962 28.2473 25.1365C28.6223 24.0762 28.6223 23.1715 28.5123 22.9796C28.4027 22.7878 28.1007 22.6784 27.6437 22.4496C27.1866 22.2211 24.9643 21.1245 24.5436 20.9783C24.132 20.823 23.7389 20.878 23.4282 21.3167C22.9892 21.9289 22.5595 22.5505 22.2119 22.925C21.9376 23.2174 21.4893 23.254 21.1146 23.0985C20.6116 22.8886 19.2035 22.3947 17.4659 20.8504C16.1215 19.6534 15.2072 18.164 14.9421 17.7163C14.6768 17.2596 14.9148 16.9942 15.1248 16.7476C15.3535 16.4642 15.5729 16.2633 15.8015 15.9982C16.0302 15.7333 16.1582 15.5961 16.3045 15.2853C16.4601 14.9838 16.3502 14.6731 16.2405 14.4445C16.1308 14.216 15.2165 11.9862 14.8415 11.0817Z" fill="#FEFEFE"/>
<defs>
<linearGradient id="paint0_linear_180_8" x1="-113.29" y1="-48.8936" x2="-113.29" y2="-47.753" gradientUnits="userSpaceOnUse">
<stop stop-color="#6EBF61"/>
<stop offset="0.231" stop-color="#50A557"/>
<stop offset="0.522" stop-color="#2A904F"/>
<stop offset="0.812" stop-color="#50A557"/>
<stop offset="1" stop-color="#6EBF63"/>
</linearGradient>
</defs>
</svg>
