<svg width="26" height="27" viewBox="0 0 26 27" fill="none" xmlns="http://www.w3.org/2000/svg">
<path d="M11.633 0.778503C8.38452 1.0797 5.37283 2.6085 3.2127 5.05325C1.05231 7.49799 -0.0943986 10.6748 0.00608746 13.9357C0.106775 17.1966 1.44695 20.2962 3.75399 22.6034C6.06103 24.9105 9.16078 26.2507 12.4217 26.3513C15.6828 26.4518 18.8596 25.3051 21.3042 23.1447C23.7489 20.9843 25.2777 17.973 25.5789 14.7244C25.8029 12.2188 25.2864 9.70247 24.0938 7.48764C22.9013 5.27258 21.0849 3.45621 18.8698 2.26372C16.655 1.07102 14.1387 0.554643 11.6331 0.778557L11.633 0.778503ZM19.6986 10.6625L12.1033 18.1788C11.8753 18.4006 11.5699 18.525 11.2519 18.525C10.9338 18.525 10.6284 18.4006 10.4004 18.1788L5.92365 13.9037C5.60861 13.601 5.47897 13.1533 5.58328 12.7293C5.6878 12.305 6.01071 11.9689 6.43027 11.8473C6.84983 11.7256 7.30238 11.8371 7.61741 12.1396L11.2306 15.6063L17.9927 8.9265C18.3052 8.63275 18.749 8.52461 19.1615 8.64147C19.5743 8.75855 19.8953 9.0836 20.0071 9.49762C20.119 9.91165 20.0054 10.354 19.7078 10.6629L19.6986 10.6625Z" fill="#C7B299"/>
</svg>
